adventprofmm-Bolditalic.ufo
<glyph name="exclam" format="1">
  <advance width="194"/>
  <unicode hex="0021"/>
  <outline>
    <contour>
      <point x="175.036" y="640" type="line"/>
      <point x="182.476" y="675"/>
      <point x="217.49" y="708"/>
      <point x="245.49" y="708" type="qcurve" smooth="yes"/>
      <point x="305.49" y="708"/>
      <point x="291.249" y="641" type="qcurve"/>
      <point x="158.507" y="120" type="line"/>
      <point x="82.5068" y="120" type="line"/>
    </contour>
    <contour>
      <point x="119.318" y="105" type="qcurve" smooth="yes"/>
      <point x="144.318" y="105"/>
      <point x="170.879" y="70"/>
      <point x="165.565" y="45" type="qcurve" smooth="yes"/>
      <point x="160.251" y="20"/>
      <point x="118.812" y="-15"/>
      <point x="93.8117" y="-15" type="qcurve" smooth="yes"/>
      <point x="69.8117" y="-15"/>
      <point x="42.2511" y="20"/>
      <point x="47.565" y="45" type="qcurve" smooth="yes"/>
      <point x="52.879" y="70"/>
      <point x="95.3184" y="105"/>
    </contour>
  </outline>
</glyph>
<glyph name="ampersand" format="1">
  <advance width="529"/>
  <unicode hex="0026"/>
  <outline>
    <contour>
      <point x="507.983" y="588" type="line"/>
      <point x="370.983" y="588" type="line" smooth="yes"/>
      <point x="357.983" y="588"/>
      <point x="326.495" y="581"/>
      <point x="301.244" y="561"/>
      <point x="296.568" y="539" type="qcurve" smooth="yes"/>
      <point x="291.679" y="516"/>
      <point x="299.389" y="477"/>
      <point x="320.375" y="444"/>
      <point x="347.424" y="416"/>
      <point x="362.66" y="403" type="qcurve"/>
      <point x="374.66" y="403" type="line"/>
      <point x="396.554" y="506" type="line"/>
      <point x="506.554" y="506" type="line"/>
      <point x="484.66" y="403" type="line"/>
      <point x="583.66" y="403" type="line"/>
      <point x="540.042" y="306" type="line"/>
      <point x="469.042" y="306" type="line"/>
      <point x="432.908" y="136" type="line" smooth="yes"/>
      <point x="425.681" y="102"/>
      <point x="459.005" y="80"/>
      <point x="493.005" y="80" type="qcurve"/>
      <point x="441.3" y="-8" type="line"/>
      <point x="395.512" y="-7"/>
      <point x="337.464" y="21"/>
      <point x="324.203" y="48" type="qcurve"/>
      <point x="303.802" y="32"/>
      <point x="258.126" y="10"/>
      <point x="212.575" y="-2"/>
      <point x="191.575" y="-2" type="qcurve" smooth="yes"/>
      <point x="162.575" y="-2"/>
      <point x="108.976" y="14"/>
      <point x="69.6278" y="50"/>
      <point x="55.0189" y="113"/>
      <point x="65.2216" y="161" type="qcurve" smooth="yes"/>
      <point x="85.4145" y="256" type="line" smooth="yes"/>
      <point x="93.4916" y="294"/>
      <point x="123.395" y="350"/>
      <point x="164.047" y="386"/>
      <point x="212.66" y="403"/>
      <point x="240.66" y="403" type="qcurve" smooth="yes"/>
      <point x="254.66" y="403" type="line"/>
      <point x="229.849" y="418"/>
      <point x="195.414" y="463"/>
      <point x="183.529" y="520"/>
      <point x="190.756" y="554" type="qcurve" smooth="yes"/>
      <point x="199.896" y="597"/>
      <point x="257.925" y="663"/>
      <point x="339.79" y="700"/>
      <point x="384.79" y="700" type="qcurve" smooth="yes"/>
      <point x="552.79" y="700" type="line"/>
    </contour>
    <contour>
      <point x="354.893" y="310" type="line"/>
      <point x="266.893" y="310" type="line" smooth="yes"/>
      <point x="250.893" y="310"/>
      <point x="220.767" y="300"/>
      <point x="198.878" y="277"/>
      <point x="194.84" y="258" type="qcurve" smooth="yes"/>
      <point x="174.859" y="164" type="line" smooth="yes"/>
      <point x="168.908" y="136"/>
      <point x="197.831" y="98"/>
      <point x="229.831" y="98" type="qcurve" smooth="yes"/>
      <point x="249.831" y="98"/>
      <point x="286.444" y="115"/>
      <point x="316.033" y="146"/>
      <point x="324.497" y="167" type="qcurve"/>
    </contour>
  </outline>
</glyph>
<glyph name="hyphen" format="1">
  <advance width="393"/>
  <unicode hex="002D"/>
  <outline>
    <contour>
      <point x="100.042" y="306" type="line"/>
      <point x="122.786" y="413" type="line"/>
      <point x="441.786" y="413" type="line"/>
      <point x="419.042" y="306" type="line"/>
    </contour>
  </outline>
</glyph>
<glyph name="two" format="1">
  <advance width="441"/>
  <unicode hex="0032"/>
  <outline>
    <contour>
      <point x="172.983" y="588" type="line"/>
      <point x="205.886" y="644"/>
      <point x="315.49" y="708"/>
      <point x="375.49" y="708" type="qcurve" smooth="yes"/>
      <point x="420.49" y="708"/>
      <point x="493.413" y="670"/>
      <point x="528.259" y="594"/>
      <point x="516.355" y="538" type="qcurve" smooth="yes"/>
      <point x="506.578" y="492"/>
      <point x="454.998" y="414"/>
      <point x="418.071" y="372" type="qcurve" smooth="yes"/>
      <point x="388.844" y="338"/>
      <point x="324.115" y="264"/>
      <point x="239.71" y="168"/>
      <point x="180.256" y="100" type="qcurve"/>
      <point x="426.256" y="100" type="line"/>
      <point x="405" y="-0" type="line"/>
      <point x="32" y="-0" type="line"/>
      <point x="53.4682" y="101" type="line"/>
      <point x="124.685" y="182"/>
      <point x="266.907" y="343"/>
      <point x="340.699" y="422" type="qcurve"/>
      <point x="364.863" y="451"/>
      <point x="391.728" y="488"/>
      <point x="403.467" y="515"/>
      <point x="406.442" y="529" type="qcurve" smooth="yes"/>
      <point x="411.544" y="553"/>
      <point x="398.133" y="584"/>
      <point x="369.534" y="600"/>
      <point x="351.746" y="601" type="qcurve"/>
      <point x="323.746" y="601"/>
      <point x="271.157" y="570"/>
      <point x="253.993" y="541" type="qcurve"/>
    </contour>
  </outline>
</glyph>
<glyph name="six" format="1">
  <advance width="486"/>
  <unicode hex="0036"/>
  <outline>
    <contour>
      <point x="400.109" y="598" type="line" smooth="yes"/>
      <point x="371.109" y="598"/>
      <point x="319.858" y="578"/>
      <point x="298.607" y="558" type="qcurve" smooth="yes"/>
      <point x="275.143" y="537"/>
      <point x="242.964" y="475"/>
      <point x="234.887" y="437" type="qcurve" smooth="yes"/>
      <point x="223.622" y="384" type="line"/>
      <point x="223.622" y="384"/>
      <point x="250.81" y="399"/>
      <point x="300.786" y="413"/>
      <point x="333.786" y="413" type="qcurve" smooth="yes"/>
      <point x="377.786" y="413"/>
      <point x="446.622" y="384"/>
      <point x="471.032" y="353" type="qcurve" smooth="yes"/>
      <point x="519.854" y="291"/>
      <point x="501.362" y="204" type="qcurve" smooth="yes"/>
      <point x="482.657" y="116"/>
      <point x="407.053" y="52" type="qcurve" smooth="yes"/>
      <point x="331.874" y="-10"/>
      <point x="243.874" y="-10" type="qcurve" smooth="yes"/>
      <point x="153.874" y="-10"/>
      <point x="107.053" y="52" type="qcurve" smooth="yes"/>
      <point x="58.6566" y="116"/>
      <point x="77.3615" y="204" type="qcurve" smooth="yes"/>
      <point x="131.776" y="460" type="line" smooth="yes"/>
      <point x="140.278" y="500"/>
      <point x="180.645" y="577"/>
      <point x="215.722" y="615" type="qcurve" smooth="yes"/>
      <point x="249.587" y="652"/>
      <point x="359.364" y="698"/>
      <point x="426.364" y="698" type="qcurve" smooth="yes"/>
      <point x="460.364" y="698" type="line"/>
      <point x="439.109" y="598" type="line"/>
    </contour>
    <contour>
      <point x="310.83" y="305" type="qcurve" smooth="yes"/>
      <point x="282.83" y="305"/>
      <point x="229.878" y="277"/>
      <point x="190.888" y="230"/>
      <point x="184.936" y="202" type="qcurve" smooth="yes"/>
      <point x="178.985" y="174"/>
      <point x="197.782" y="126"/>
      <point x="238.831" y="98"/>
      <point x="266.831" y="98" type="qcurve" smooth="yes"/>
      <point x="295.831" y="98"/>
      <point x="347.782" y="126"/>
      <point x="385.985" y="174"/>
      <point x="391.936" y="202" type="qcurve" smooth="yes"/>
      <point x="397.888" y="230"/>
      <point x="379.878" y="277"/>
      <point x="339.83" y="305"/>
    </contour>
  </outline>
</glyph>
<glyph name="nine" format="1">
  <advance width="484"/>
  <unicode hex="0039"/>
  <outline>
    <contour>
      <point x="388.49" y="708" type="qcurve" smooth="yes"/>
      <point x="475.49" y="708"/>
      <point x="525.524" y="647" type="qcurve"/>
      <point x="573.133" y="584"/>
      <point x="554.428" y="496" type="qcurve" smooth="yes"/>
      <point x="499.588" y="238" type="line" smooth="yes"/>
      <point x="491.086" y="198"/>
      <point x="451.719" y="121"/>
      <point x="416.43" y="82" type="qcurve"/>
      <point x="381.778" y="46"/>
      <point x="272.787" y="-1"/>
      <point x="205.787" y="-1" type="qcurve" smooth="yes"/>
      <point x="170.787" y="-1" type="line"/>
      <point x="192.256" y="100" type="line"/>
      <point x="231.256" y="100" type="line" smooth="yes"/>
      <point x="262.256" y="100"/>
      <point x="313.932" y="122"/>
      <point x="333.758" y="140" type="qcurve" smooth="yes"/>
      <point x="356.434" y="162"/>
      <point x="387.613" y="224"/>
      <point x="395.69" y="262" type="qcurve" smooth="yes"/>
      <point x="406.955" y="315" type="line"/>
      <point x="406.955" y="315"/>
      <point x="380.98" y="301"/>
      <point x="332.791" y="286"/>
      <point x="298.791" y="286" type="qcurve" smooth="yes"/>
      <point x="255.791" y="286"/>
      <point x="184.955" y="315"/>
      <point x="160.332" y="345" type="qcurve"/>
      <point x="112.936" y="409"/>
      <point x="131.428" y="496" type="qcurve" smooth="yes"/>
      <point x="150.133" y="584"/>
      <point x="224.524" y="647" type="qcurve"/>
      <point x="301.49" y="708"/>
    </contour>
    <contour>
      <point x="365.321" y="599" type="qcurve" smooth="yes"/>
      <point x="337.321" y="599"/>
      <point x="283.582" y="572"/>
      <point x="245.805" y="526"/>
      <point x="239.641" y="497" type="qcurve" smooth="yes"/>
      <point x="233.689" y="469"/>
      <point x="251.699" y="422"/>
      <point x="293.747" y="394"/>
      <point x="321.747" y="394" type="qcurve" smooth="yes"/>
      <point x="350.747" y="394"/>
      <point x="402.699" y="422"/>
      <point x="439.689" y="469"/>
      <point x="445.641" y="497" type="qcurve" smooth="yes"/>
      <point x="451.805" y="526"/>
      <point x="434.582" y="572"/>
      <point x="394.321" y="599"/>
    </contour>
  </outline>
</glyph>
<glyph name="question" format="1">
  <advance width="426"/>
  <unicode hex="003F"/>
  <outline>
    <contour>
      <point x="138.868" y="531" type="line"/>
      <point x="151.833" y="592"/>
      <point x="221.413" y="670"/>
      <point x="312.49" y="708"/>
      <point x="356.49" y="708" type="qcurve" smooth="yes"/>
      <point x="408.49" y="708"/>
      <point x="484.712" y="662"/>
      <point x="518.858" y="578"/>
      <point x="506.742" y="521" type="qcurve" smooth="yes"/>
      <point x="496.327" y="472"/>
      <point x="435.235" y="401"/>
      <point x="395.583" y="365" type="qcurve" smooth="yes"/>
      <point x="370.907" y="343"/>
      <point x="337.68" y="309"/>
      <point x="315.666" y="276"/>
      <point x="299.376" y="237"/>
      <point x="292.637" y="210" type="qcurve" smooth="yes"/>
      <point x="289.874" y="197"/>
      <point x="283.922" y="169"/>
      <point x="277.333" y="138"/>
      <point x="273.294" y="119" type="qcurve"/>
      <point x="164.294" y="119" type="line"/>
      <point x="184.062" y="212" type="line" smooth="yes"/>
      <point x="190.864" y="244"/>
      <point x="215.342" y="298"/>
      <point x="247.119" y="344"/>
      <point x="282.409" y="383"/>
      <point x="300.023" y="400" type="qcurve" smooth="yes"/>
      <point x="322.699" y="422"/>
      <point x="363.201" y="462"/>
      <point x="391.916" y="503"/>
      <point x="396.592" y="525" type="qcurve" smooth="yes"/>
      <point x="400.843" y="545"/>
      <point x="389.495" y="581"/>
      <point x="359.172" y="603"/>
      <point x="335.172" y="603" type="qcurve" smooth="yes"/>
      <point x="318.172" y="603"/>
      <point x="282.771" y="587"/>
      <point x="257.181" y="556"/>
      <point x="251.868" y="531" type="qcurve"/>
    </contour>
    <contour>
      <point x="215.893" y="103" type="qcurve" smooth="yes"/>
      <point x="240.893" y="103"/>
      <point x="267.454" y="68"/>
      <point x="262.14" y="43" type="qcurve" smooth="yes"/>
      <point x="256.826" y="18"/>
      <point x="215.387" y="-17"/>
      <point x="190.387" y="-17" type="qcurve" smooth="yes"/>
      <point x="165.387" y="-17"/>
      <point x="137.826" y="18"/>
      <point x="143.14" y="43" type="qcurve" smooth="yes"/>
      <point x="148.454" y="68"/>
      <point x="190.893" y="103"/>
    </contour>
  </outline>
</glyph>
<glyph name="A" format="1">
  <advance width="543"/>
  <unicode hex="0041"/>
    <anchor name="top" x="427.229" y="735"/>
    <anchor name="tonos" x="238.79" y="700"/>
    <anchor name="ogonek" x="271" y="0"/>
  <outline>
    <contour>
      <point x="520" y="-0" type="line"/>
      <point x="389" y="-0" type="line"/>
      <point x="387.898" y="183" type="line"/>
      <point x="226.898" y="183" type="line"/>
      <point x="148" y="-0" type="line"/>
      <point x="24" y="-0" type="line"/>
      <point x="341.364" y="698" type="line"/>
      <point x="496.364" y="698" type="line"/>
    </contour>
    <contour>
      <point x="278.767" y="300" type="line"/>
      <point x="387.767" y="300" type="line"/>
      <point x="386.969" y="555" type="line"/>
    </contour>
    <contour>
      <point x="427.229" y="735" type="move" name="top"/>
    </contour>
    <contour>
      <point x="238.79" y="700" type="move" name="tonos"/>
    </contour>
    <contour>
      <point x="271" y="0" type="move" name="ogonek"/>
    </contour>
  </outline>
</glyph>
<glyph name="B" format="1">
  <advance width="505"/>
  <unicode hex="0042"/>
  <outline>
    <contour>
      <point x="393.364" y="698" type="line" smooth="yes"/>
      <point x="480.364" y="698"/>
      <point x="566.597" y="605"/>
      <point x="548.742" y="521" type="qcurve" smooth="yes"/>
      <point x="538.964" y="475"/>
      <point x="490.511" y="407"/>
      <point x="452.622" y="384" type="qcurve"/>
      <point x="451.984" y="381" type="line"/>
      <point x="491.733" y="361"/>
      <point x="532.028" y="273"/>
      <point x="517.574" y="205" type="qcurve" smooth="yes"/>
      <point x="497.806" y="112"/>
      <point x="364" y="-0"/>
      <point x="260" y="-0" type="qcurve" smooth="yes"/>
      <point x="41" y="-0" type="line"/>
      <point x="189.364" y="698" type="line"/>
    </contour>
    <contour>
      <point x="286.786" y="413" type="line" smooth="yes"/>
      <point x="325.786" y="413"/>
      <point x="378.399" y="430"/>
      <point x="410.114" y="471"/>
      <point x="417.341" y="505" type="qcurve" smooth="yes"/>
      <point x="427.331" y="552"/>
      <point x="384.983" y="588"/>
      <point x="333.983" y="588" type="qcurve" smooth="yes"/>
      <point x="275.983" y="588" type="line"/>
      <point x="238.786" y="413" type="line"/>
    </contour>
    <contour>
      <point x="252.468" y="101" type="line" smooth="yes"/>
      <point x="276.468" y="101"/>
      <point x="335.082" y="118"/>
      <point x="382.859" y="164"/>
      <point x="391.999" y="207" type="qcurve" smooth="yes"/>
      <point x="402.627" y="257"/>
      <point x="350.255" y="307"/>
      <point x="286.255" y="307" type="qcurve" smooth="yes"/>
      <point x="216.255" y="307" type="line"/>
      <point x="172.468" y="101" type="line"/>
    </contour>
  </outline>
</glyph>
<glyph name="C" format="1">
  <advance width="426"/>
  <unicode hex="0043"/>
    <anchor name="bottom" x="213" y="0"/>
    <anchor name="top" x="369.229" y="735"/>
  <outline>
    <contour>
      <point x="465.708" y="582" type="line"/>
      <point x="447.408" y="590"/>
      <point x="398.321" y="599"/>
      <point x="375.321" y="599" type="qcurve" smooth="yes"/>
      <point x="326.321" y="599"/>
      <point x="264.819" y="559"/>
      <point x="254.829" y="512" type="qcurve" smooth="yes"/>
      <point x="185.323" y="185" type="line" smooth="yes"/>
      <point x="178.734" y="154"/>
      <point x="192.869" y="117"/>
      <point x="230.256" y="100"/>
      <point x="260.256" y="100" type="qcurve" smooth="yes"/>
      <point x="291.256" y="100"/>
      <point x="354.231" y="114"/>
      <point x="400.995" y="127"/>
      <point x="406.995" y="127" type="qcurve"/>
      <point x="400.889" y="23" type="line"/>
      <point x="306.662" y="-11"/>
      <point x="230.449" y="-12" type="qcurve"/>
      <point x="190.449" y="-12"/>
      <point x="123.126" y="10"/>
      <point x="101.802" y="32" type="qcurve" smooth="yes"/>
      <point x="79.9032" y="56"/>
      <point x="63.8449" y="131"/>
      <point x="74.8979" y="183" type="qcurve" smooth="yes"/>
      <point x="144.191" y="509" type="line" smooth="yes"/>
      <point x="158.22" y="575"/>
      <point x="227.138" y="664"/>
      <point x="323.915" y="710"/>
      <point x="378.915" y="710" type="qcurve" smooth="yes"/>
      <point x="450.915" y="710"/>
      <point x="515.476" y="675" type="qcurve"/>
    </contour>
    <contour>
      <point x="213" y="0" type="move" name="bottom"/>
    </contour>
    <contour>
      <point x="369.229" y="735" type="move" name="top"/>
    </contour>
  </outline>
</glyph>
<glyph name="D" format="1">
  <advance width="497"/>
  <unicode hex="0044"/>
    <anchor name="top" x="404.229" y="735"/>
  <outline>
    <contour>
      <point x="377.79" y="700" type="line" smooth="yes"/>
      <point x="490.79" y="700"/>
      <point x="583.22" y="575"/>
      <point x="561.539" y="473" type="qcurve" smooth="yes"/>
      <point x="504.787" y="206" type="line" smooth="yes"/>
      <point x="483.744" y="107"/>
      <point x="355" y="-0"/>
      <point x="249" y="-0" type="qcurve" smooth="yes"/>
      <point x="41" y="-0" type="line"/>
      <point x="189.79" y="700" type="line"/>
    </contour>
    <contour>
      <point x="255.468" y="101" type="line" smooth="yes"/>
      <point x="311.468" y="101"/>
      <point x="367.057" y="132"/>
      <point x="388.41" y="176"/>
      <point x="392.661" y="196" type="qcurve" smooth="yes"/>
      <point x="453.665" y="483" type="line" smooth="yes"/>
      <point x="461.317" y="519"/>
      <point x="447.094" y="565"/>
      <point x="401.983" y="588"/>
      <point x="363.983" y="588" type="qcurve" smooth="yes"/>
      <point x="275.983" y="588" type="line"/>
      <point x="172.468" y="101" type="line"/>
    </contour>
    <contour>
      <point x="404.229" y="735" type="move" name="top"/>
    </contour>
  </outline>
</glyph>
<glyph name="G" format="1">
  <advance width="480"/>
  <unicode hex="0047"/>
    <anchor name="bottom" x="240" y="0"/>
    <anchor name="top" x="396.229" y="735"/>
  <outline>
    <contour>
      <point x="461.433" y="576" type="line"/>
      <point x="439.133" y="584"/>
      <point x="395.259" y="594"/>
      <point x="374.259" y="594" type="qcurve" smooth="yes"/>
      <point x="355.259" y="594"/>
      <point x="321.196" y="589"/>
      <point x="306.92" y="583" type="qcurve" smooth="yes"/>
      <point x="287.007" y="574"/>
      <point x="260.568" y="539"/>
      <point x="254.404" y="510" type="qcurve" smooth="yes"/>
      <point x="185.748" y="187" type="line" smooth="yes"/>
      <point x="175.545" y="139"/>
      <point x="218.468" y="101"/>
      <point x="267.468" y="101" type="qcurve" smooth="yes"/>
      <point x="316.468" y="101"/>
      <point x="343.57" y="125" type="qcurve" smooth="yes"/>
      <point x="354.908" y="136"/>
      <point x="372.284" y="166"/>
      <point x="376.536" y="186" type="qcurve" smooth="yes"/>
      <point x="378.449" y="195" type="line"/>
      <point x="321.449" y="195" type="line"/>
      <point x="308.767" y="300" type="line"/>
      <point x="510.767" y="300" type="line"/>
      <point x="447" y="0" type="line"/>
      <point x="371" y="0" type="line"/>
      <point x="371.952" y="28" type="line"/>
      <point x="351.976" y="14"/>
      <point x="301.362" y="-3"/>
      <point x="257.874" y="-10"/>
      <point x="244.874" y="-10" type="qcurve" smooth="yes"/>
      <point x="199.874" y="-10"/>
      <point x="131.551" y="12"/>
      <point x="105.865" y="37" type="qcurve" smooth="yes"/>
      <point x="80.1785" y="62"/>
      <point x="65.7579" y="140"/>
      <point x="76.1732" y="189" type="qcurve" smooth="yes"/>
      <point x="142.703" y="502" type="line" smooth="yes"/>
      <point x="156.307" y="566"/>
      <point x="219.65" y="657"/>
      <point x="268.176" y="683" type="qcurve" smooth="yes"/>
      <point x="293.939" y="696"/>
      <point x="352.49" y="708"/>
      <point x="392.49" y="708" type="qcurve"/>
      <point x="462.852" y="705"/>
      <point x="515.476" y="675" type="qcurve"/>
    </contour>
    <contour>
      <point x="240" y="0" type="move" name="bottom"/>
    </contour>
    <contour>
      <point x="396.229" y="735" type="move" name="top"/>
    </contour>
  </outline>
</glyph>
<glyph name="K" format="1">
  <advance width="514"/>
  <unicode hex="004B"/>
    <anchor name="bottom" x="257" y="0"/>
  <outline>
    <contour>
      <point x="255.288" y="453" type="line"/>
      <point x="468.79" y="700" type="line"/>
      <point x="600.79" y="700" type="line"/>
      <point x="339.723" y="408" type="line"/>
      <point x="492" y="0" type="line"/>
      <point x="354" y="0" type="line"/>
      <point x="251.467" y="308" type="line"/>
      <point x="215.115" y="264" type="line"/>
      <point x="159" y="0" type="line"/>
      <point x="41" y="0" type="line"/>
      <point x="189.79" y="700" type="line"/>
      <point x="307.79" y="700" type="line"/>
    </contour>
    <contour>
      <point x="257" y="0" type="move" name="bottom"/>
    </contour>
  </outline>
</glyph>
<glyph name="Q" format="1">
  <advance width="493"/>
  <unicode hex="0051"/>
  <outline>
    <contour>
      <point x="304.565" y="45" type="line" smooth="yes"/>
      <point x="299.889" y="23"/>
      <point x="308.512" y="-7"/>
      <point x="352.324" y="-22"/>
      <point x="399.324" y="-22" type="qcurve"/>
      <point x="365.131" y="-117" type="line"/>
      <point x="286.131" y="-117"/>
      <point x="210.633" y="-77"/>
      <point x="195.087" y="-9"/>
      <point x="203.589" y="31" type="qcurve" smooth="yes"/>
      <point x="233.772" y="173" type="line"/>
      <point x="331.772" y="173" type="line"/>
    </contour>
    <component base="O"/>
  </outline>
</glyph>
<glyph name="R" format="1">
  <advance width="511"/>
  <unicode hex="0052"/>
    <anchor name="top" x="411.229" y="735"/>
    <anchor name="bottom" x="255" y="0"/>
  <outline>
    <contour>
      <point x="406.364" y="698" type="line" smooth="yes"/>
      <point x="445.364" y="698"/>
      <point x="518.688" y="676"/>
      <point x="569.998" y="621"/>
      <point x="587.592" y="525"/>
      <point x="571.863" y="451" type="qcurve" smooth="yes"/>
      <point x="553.158" y="363"/>
      <point x="485.84" y="258"/>
      <point x="444.313" y="232" type="qcurve"/>
      <point x="480" y="0" type="line"/>
      <point x="363" y="0" type="line"/>
      <point x="335.661" y="196" type="line"/>
      <point x="326.449" y="195"/>
      <point x="308.449" y="195"/>
      <point x="299.449" y="195" type="qcurve" smooth="yes"/>
      <point x="192.449" y="195" type="line"/>
      <point x="151" y="0" type="line"/>
      <point x="41" y="0" type="line"/>
      <point x="189.364" y="698" type="line"/>
    </contour>
    <contour>
      <point x="280.767" y="300" type="line" smooth="yes"/>
      <point x="332.767" y="300"/>
      <point x="402.018" y="320"/>
      <point x="446.622" y="384"/>
      <point x="460.863" y="451" type="qcurve" smooth="yes"/>
      <point x="474.254" y="514"/>
      <point x="455.582" y="572"/>
      <point x="392.983" y="588"/>
      <point x="341.983" y="588" type="qcurve" smooth="yes"/>
      <point x="275.983" y="588" type="line"/>
      <point x="214.767" y="300" type="line"/>
    </contour>
    <contour>
      <point x="411.229" y="735" type="move" name="top"/>
    </contour>
    <contour>
      <point x="255" y="0" type="move" name="bottom"/>
    </contour>
  </outline>
</glyph>
<glyph name="S" format="1">
  <advance width="544"/>
  <unicode hex="0053"/>
    <anchor name="bottom" x="272" y="0"/>
    <anchor name="top" x="428.229" y="735"/>
  <outline>
    <contour>
      <point x="539.007" y="574" type="line"/>
      <point x="503.046" y="593"/>
      <point x="461.809" y="606"/>
      <point x="416.809" y="606" type="curve" smooth="yes"/>
      <point x="372.809" y="606"/>
      <point x="300.196" y="589"/>
      <point x="288.718" y="535" type="curve" smooth="yes"/>
      <point x="280.428" y="496"/>
      <point x="309.602" y="478"/>
      <point x="344.138" y="457" type="curve" smooth="yes"/>
      <point x="381.462" y="435"/>
      <point x="429.998" y="414"/>
      <point x="467.685" y="389" type="curve" smooth="yes"/>
      <point x="530.97" y="348"/>
      <point x="577.917" y="296"/>
      <point x="557.086" y="198" type="curve" smooth="yes"/>
      <point x="524.565" y="45"/>
      <point x="388.449" y="-12"/>
      <point x="261.449" y="-12" type="curve" smooth="yes"/>
      <point x="174.449" y="-12"/>
      <point x="96.9516" y="28"/>
      <point x="54.7678" y="93" type="curve"/>
      <point x="131.497" y="167" type="line"/>
      <point x="165.719" y="121"/>
      <point x="221.555" y="92"/>
      <point x="285.555" y="92" type="curve" smooth="yes"/>
      <point x="349.555" y="92"/>
      <point x="422.57" y="125"/>
      <point x="437.874" y="197" type="curve" smooth="yes"/>
      <point x="448.714" y="248"/>
      <point x="417.028" y="273"/>
      <point x="377.554" y="299" type="curve" smooth="yes"/>
      <point x="345.231" y="321"/>
      <point x="304.057" y="339"/>
      <point x="268.52" y="360" type="curve" smooth="yes"/>
      <point x="207.172" y="396"/>
      <point x="156.588" y="445"/>
      <point x="175.505" y="534" type="curve" smooth="yes"/>
      <point x="202.712" y="662"/>
      <point x="331.49" y="708"/>
      <point x="440.49" y="708" type="curve" smooth="yes"/>
      <point x="495.49" y="708"/>
      <point x="549.152" y="697"/>
      <point x="592.625" y="671" type="curve"/>
    </contour>
    <contour>
      <point x="272" y="0" type="move" name="bottom"/>
    </contour>
    <contour>
      <point x="428.229" y="735" type="move" name="top"/>
    </contour>
  </outline>
</glyph>
<glyph name="W" format="1">
  <advance width="740"/>
  <unicode hex="0057"/>
    <anchor name="top" x="526.229" y="735"/>
  <outline>
    <contour>
      <point x="557.364" y="698" type="line"/>
      <point x="568.564" y="252" type="line"/>
      <point x="738.364" y="698" type="line"/>
      <point x="865.364" y="698" type="line"/>
      <point x="582" y="-0" type="line"/>
      <point x="458" y="-0" type="line"/>
      <point x="444.032" y="353" type="line"/>
      <point x="282" y="-0" type="line"/>
      <point x="154" y="-0" type="line"/>
      <point x="168.364" y="698" type="line"/>
      <point x="289.364" y="698" type="line"/>
      <point x="277.564" y="252" type="line"/>
      <point x="478.364" y="698" type="line"/>
    </contour>
    <contour>
      <point x="526.229" y="735" type="move" name="top"/>
    </contour>
  </outline>
</glyph>
<glyph name="Z" format="1">
  <advance width="556"/>
  <unicode hex="005A"/>
    <anchor name="top" x="434.229" y="735"/>
  <outline>
    <contour>
      <point x="662.364" y="698" type="line"/>
      <point x="638.983" y="588" type="line"/>
      <point x="192.318" y="105" type="line"/>
      <point x="542.318" y="105" type="line"/>
      <point x="520" y="-0" type="line"/>
      <point x="32" y="-0" type="line"/>
      <point x="53.4682" y="101" type="line"/>
      <point x="499.983" y="588" type="line"/>
      <point x="170.983" y="588" type="line"/>
      <point x="194.364" y="698" type="line"/>
    </contour>
    <contour>
      <point x="434.229" y="735" type="move" name="top"/>
    </contour>
  </outline>
</glyph>
<glyph name="grave" format="1">
  <advance width="266"/>
  <unicode hex="0060"/>
  <outline>
    <contour>
      <point x="280.64" y="704" type="qcurve"/>
      <point x="285.771" y="587" type="line"/>
      <point x="241.771" y="587" type="line"/>
      <point x="199.925" y="663" type="line"/>
      <point x="189.901" y="677"/>
      <point x="196.466" y="722"/>
      <point x="221.017" y="734" type="qcurve" smooth="yes"/>
      <point x="243.355" y="745"/>
      <point x="276.891" y="724"/>
    </contour>
  </outline>
</glyph>
<glyph name="c" format="1">
  <advance width="384"/>
  <unicode hex="0063"/>
    <anchor name="bottom" x="192" y="0"/>
    <anchor name="top" x="307.843" y="545"/>
  <outline>
    <contour>
      <point x="409.322" y="392" type="line"/>
      <point x="385.873" y="404"/>
      <point x="326.849" y="418"/>
      <point x="296.786" y="413" type="qcurve" smooth="yes"/>
      <point x="279.148" y="410"/>
      <point x="245.747" y="394"/>
      <point x="233.771" y="380" type="qcurve" smooth="yes"/>
      <point x="226.646" y="370"/>
      <point x="213.545" y="346"/>
      <point x="210.356" y="331" type="qcurve" smooth="yes"/>
      <point x="176.985" y="174" type="line" smooth="yes"/>
      <point x="167.207" y="128"/>
      <point x="215.855" y="84"/>
      <point x="261.855" y="84" type="qcurve" smooth="yes"/>
      <point x="277.855" y="84"/>
      <point x="310.492" y="87"/>
      <point x="337.343" y="91"/>
      <point x="352.98" y="94"/>
      <point x="352.98" y="94" type="qcurve"/>
      <point x="354.063" y="5" type="line"/>
      <point x="302.3" y="-8"/>
      <point x="192.812" y="-15"/>
      <point x="143.213" y="1" type="qcurve"/>
      <point x="95.826" y="18"/>
      <point x="52.2557" y="100"/>
      <point x="67.7723" y="173" type="qcurve" smooth="yes"/>
      <point x="98.8055" y="319" type="line"/>
      <point x="107.82" y="352"/>
      <point x="130.66" y="403"/>
      <point x="149.762" y="427" type="qcurve" smooth="yes"/>
      <point x="176.776" y="460"/>
      <point x="240.853" y="498"/>
      <point x="276.341" y="505" type="qcurve" smooth="yes"/>
      <point x="323.467" y="515"/>
      <point x="413.641" y="497"/>
      <point x="452.389" y="477" type="qcurve"/>
    </contour>
    <contour>
      <point x="192" y="0" type="move" name="bottom"/>
    </contour>
    <contour>
      <point x="307.843" y="545" type="move" name="top"/>
    </contour>
  </outline>
</glyph>
<glyph name="d" format="1">
  <advance width="459"/>
  <unicode hex="0064"/>
    <anchor name="top" x="385.229" y="735"/>
  <outline>
    <contour>
      <point x="416" y="0" type="line"/>
      <point x="395.362" y="-3"/>
      <point x="352.512" y="-7"/>
      <point x="307.874" y="-10"/>
      <point x="260.662" y="-11"/>
      <point x="236.662" y="-11" type="qcurve" smooth="yes"/>
      <point x="180.662" y="-11"/>
      <point x="93.8888" y="23"/>
      <point x="53.4054" y="96"/>
      <point x="63.9463" y="155" type="qcurve"/>
      <point x="107.308" y="359" type="line" smooth="yes"/>
      <point x="118.148" y="410"/>
      <point x="176.177" y="476"/>
      <point x="250.979" y="508"/>
      <point x="287.979" y="508" type="qcurve" smooth="yes"/>
      <point x="322.979" y="508"/>
      <point x="379.428" y="496"/>
      <point x="408.452" y="482" type="qcurve"/>
      <point x="454.364" y="698" type="line"/>
      <point x="564.364" y="698" type="line"/>
    </contour>
    <contour>
      <point x="384.646" y="370" type="line"/>
      <point x="376.709" y="375"/>
      <point x="330.747" y="394"/>
      <point x="295.747" y="394" type="qcurve" smooth="yes"/>
      <point x="280.747" y="394"/>
      <point x="245.834" y="385"/>
      <point x="219.371" y="364"/>
      <point x="215.332" y="345" type="qcurve" smooth="yes"/>
      <point x="178.985" y="174" type="line" smooth="yes"/>
      <point x="174.946" y="155"/>
      <point x="176.357" y="124"/>
      <point x="192.893" y="103"/>
      <point x="231.343" y="91"/>
      <point x="265.343" y="91" type="qcurve" smooth="yes"/>
      <point x="271.343" y="91"/>
      <point x="291.555" y="92"/>
      <point x="311.768" y="93"/>
      <point x="325.98" y="94"/>
      <point x="325.98" y="94" type="qcurve"/>
    </contour>
    <contour>
      <point x="385.229" y="735" type="move" name="top"/>
    </contour>
  </outline>
</glyph>
<glyph name="e" format="1">
  <advance width="425"/>
  <unicode hex="0065"/>
    <anchor name="top" x="327.843" y="545"/>
    <anchor name="ogonek" x="211" y="0"/>
  <outline>
    <contour>
      <point x="175.458" y="148" type="line" smooth="yes"/>
      <point x="172.483" y="134"/>
      <point x="176.231" y="114"/>
      <point x="181.531" y="106" type="qcurve" smooth="yes"/>
      <point x="185.468" y="101"/>
      <point x="195.768" y="93"/>
      <point x="211.13" y="90"/>
      <point x="220.13" y="90" type="qcurve" smooth="yes"/>
      <point x="247.13" y="90"/>
      <point x="320.231" y="114"/>
      <point x="355.632" y="130" type="qcurve"/>
      <point x="375.439" y="35" type="line"/>
      <point x="335.763" y="13"/>
      <point x="240.237" y="-13"/>
      <point x="195.237" y="-13" type="qcurve" smooth="yes"/>
      <point x="173.237" y="-13"/>
      <point x="133.725" y="-6"/>
      <point x="100.913" y="9"/>
      <point x="87.2511" y="20" type="qcurve" smooth="yes"/>
      <point x="68.8646" y="37"/>
      <point x="52.9803" y="94"/>
      <point x="61.4826" y="134" type="qcurve" smooth="yes"/>
      <point x="105.057" y="339" type="line" smooth="yes"/>
      <point x="114.409" y="383"/>
      <point x="160.65" y="450"/>
      <point x="193.327" y="472" type="qcurve" smooth="yes"/>
      <point x="249.191" y="509"/>
      <point x="325.191" y="509" type="qcurve" smooth="yes"/>
      <point x="396.191" y="509"/>
      <point x="433.389" y="477" type="qcurve" smooth="yes"/>
      <point x="485.037" y="433"/>
      <point x="465.694" y="342" type="qcurve" smooth="yes"/>
      <point x="432.536" y="186" type="line"/>
      <point x="180.772" y="173" type="line"/>
    </contour>
    <contour>
      <point x="348.318" y="312" type="qcurve" smooth="yes"/>
      <point x="354.057" y="339"/>
      <point x="354.709" y="375"/>
      <point x="343.472" y="388" type="qcurve" smooth="yes"/>
      <point x="337.96" y="395"/>
      <point x="317.873" y="404"/>
      <point x="301.873" y="404" type="qcurve"/>
      <point x="283.66" y="403"/>
      <point x="254.535" y="393"/>
      <point x="244.834" y="385" type="qcurve" smooth="yes"/>
      <point x="229.071" y="372"/>
      <point x="215.632" y="337"/>
      <point x="210.53" y="313" type="qcurve" smooth="yes"/>
      <point x="209.042" y="306"/>
      <point x="203.941" y="282"/>
      <point x="202.24" y="274" type="qcurve"/>
      <point x="342.154" y="283" type="line"/>
      <point x="343.216" y="288"/>
      <point x="347.255" y="307"/>
    </contour>
    <contour>
      <point x="327.843" y="545" type="move" name="top"/>
    </contour>
    <contour>
      <point x="211" y="0" type="move" name="ogonek"/>
    </contour>
  </outline>
</glyph>
<glyph name="g" format="1">
  <advance width="442"/>
  <unicode hex="0067"/>
    <anchor name="top" x="336.843" y="545"/>
  <outline>
    <contour>
      <point x="388.396" y="-64" type="line" smooth="yes"/>
      <point x="371.604" y="-143"/>
      <point x="272.363" y="-210"/>
      <point x="201.363" y="-210" type="qcurve"/>
      <point x="192.643" y="-124" type="line"/>
      <point x="209.643" y="-124"/>
      <point x="245.406" y="-111"/>
      <point x="275.208" y="-79"/>
      <point x="280.735" y="-53" type="qcurve" smooth="yes"/>
      <point x="294.551" y="12" type="line"/>
      <point x="282.063" y="5"/>
      <point x="249.725" y="-6"/>
      <point x="216.449" y="-12"/>
      <point x="199.449" y="-12" type="qcurve" smooth="yes"/>
      <point x="116.449" y="-12"/>
      <point x="49.8548" y="84"/>
      <point x="69.41" y="176" type="qcurve" smooth="yes"/>
      <point x="105.332" y="345" type="line" smooth="yes"/>
      <point x="121.486" y="421"/>
      <point x="221.191" y="509"/>
      <point x="298.191" y="509" type="qcurve" smooth="yes"/>
      <point x="317.191" y="509"/>
      <point x="350.703" y="502"/>
      <point x="380.728" y="488"/>
      <point x="393.389" y="477" type="qcurve"/>
      <point x="398.066" y="499" type="line"/>
      <point x="508.066" y="499" type="line"/>
    </contour>
    <contour>
      <point x="374.047" y="386" type="line"/>
      <point x="374.047" y="386"/>
      <point x="352.598" y="398"/>
      <point x="320.148" y="410"/>
      <point x="303.148" y="410" type="qcurve" smooth="yes"/>
      <point x="284.148" y="410"/>
      <point x="247.385" y="397"/>
      <point x="219.583" y="365"/>
      <point x="213.632" y="337" type="qcurve" smooth="yes"/>
      <point x="175.796" y="159" type="line" smooth="yes"/>
      <point x="169.632" y="130"/>
      <point x="194.705" y="88"/>
      <point x="229.705" y="88" type="qcurve"/>
      <point x="258.13" y="90"/>
      <point x="296.531" y="106"/>
      <point x="319.207" y="128"/>
      <point x="321.545" y="139" type="qcurve" smooth="yes"/>
    </contour>
    <contour>
      <point x="336.843" y="545" type="move" name="top"/>
    </contour>
  </outline>
</glyph>
<glyph name="h" format="1">
  <advance width="445"/>
  <unicode hex="0068"/>
    <anchor name="top" x="378.229" y="735"/>
  <outline>
    <contour>
      <point x="251.177" y="476" type="line"/>
      <point x="266.09" y="485"/>
      <point x="327.191" y="509"/>
      <point x="358.191" y="509" type="qcurve" smooth="yes"/>
      <point x="388.191" y="509"/>
      <point x="441.79" y="493"/>
      <point x="480.138" y="457"/>
      <point x="494.535" y="393"/>
      <point x="484.332" y="345" type="qcurve" smooth="yes"/>
      <point x="411" y="-0" type="line"/>
      <point x="302" y="-0" type="line"/>
      <point x="374.907" y="343" type="line" smooth="yes"/>
      <point x="378.945" y="362"/>
      <point x="367.322" y="392"/>
      <point x="337.936" y="409"/>
      <point x="316.936" y="409" type="qcurve" smooth="yes"/>
      <point x="299.936" y="409"/>
      <point x="258.598" y="398"/>
      <point x="232.047" y="386" type="qcurve"/>
      <point x="150" y="-0" type="line"/>
      <point x="41" y="-0" type="line"/>
      <point x="189.364" y="698" type="line"/>
      <point x="298.364" y="698" type="line"/>
    </contour>
    <contour>
      <point x="378.229" y="735" type="move" name="top"/>
    </contour>
  </outline>
</glyph>
<glyph name="i" format="1">
  <advance width="200"/>
  <unicode hex="0069"/>
  <outline>
    <contour>
      <point x="44" y="-0" type="line"/>
      <point x="150.066" y="499" type="line"/>
      <point x="260.066" y="499" type="line"/>
      <point x="154" y="-0" type="line"/>
    </contour>
    <contour>
      <point x="249.49" y="708" type="qcurve" smooth="yes"/>
      <point x="274.49" y="708"/>
      <point x="302.476" y="675"/>
      <point x="297.162" y="650" type="qcurve" smooth="yes"/>
      <point x="291.848" y="625"/>
      <point x="249.408" y="590"/>
      <point x="224.408" y="590" type="qcurve" smooth="yes"/>
      <point x="199.408" y="590"/>
      <point x="172.848" y="625"/>
      <point x="178.162" y="650" type="qcurve" smooth="yes"/>
      <point x="183.476" y="675"/>
      <point x="224.49" y="708"/>
    </contour>
  </outline>
</glyph>
<glyph name="k" format="1">
  <advance width="473"/>
  <unicode hex="006B"/>
    <anchor name="bottom" x="236" y="0"/>
  <outline>
    <contour>
      <point x="320.569" y="332" type="line"/>
      <point x="367.849" y="211"/>
      <point x="434.778" y="46"/>
      <point x="454" y="0" type="qcurve"/>
      <point x="315" y="0" type="line"/>
      <point x="218.989" y="254" type="line"/>
      <point x="202.014" y="240" type="line"/>
      <point x="151" y="0" type="line"/>
      <point x="41" y="0" type="line"/>
      <point x="189.364" y="698" type="line"/>
      <point x="299.364" y="698" type="line"/>
      <point x="232.197" y="382" type="line"/>
      <point x="411.317" y="519" type="line"/>
      <point x="475.163" y="443" type="line"/>
    </contour>
    <contour>
      <point x="236" y="0" type="move" name="bottom"/>
    </contour>
  </outline>
</glyph>
<glyph name="l" format="1">
  <advance width="194"/>
  <unicode hex="006C"/>
    <anchor name="top" x="253.229" y="735"/>
    <anchor name="bottom" x="97" y="0"/>
  <outline>
    <contour>
      <point x="41" y="0" type="line"/>
      <point x="189.364" y="698" type="line"/>
      <point x="299.364" y="698" type="line"/>
      <point x="151" y="0" type="line"/>
    </contour>
    <contour>
      <point x="253.229" y="735" type="move" name="top"/>
    </contour>
    <contour>
      <point x="97" y="0" type="move" name="bottom"/>
    </contour>
  </outline>
</glyph>
<glyph name="m" format="1">
  <advance width="719"/>
  <unicode hex="006D"/>
  <outline>
    <contour>
      <point x="644.482" y="341" type="line" smooth="yes"/>
      <point x="648.733" y="361"/>
      <point x="634.11" y="391"/>
      <point x="601.723" y="408"/>
      <point x="580.723" y="408" type="qcurve" smooth="yes"/>
      <point x="567.723" y="408"/>
      <point x="519.172" y="396"/>
      <point x="493.622" y="384" type="qcurve"/>
      <point x="493.709" y="375"/>
      <point x="490.458" y="355"/>
      <point x="488.119" y="344" type="qcurve" smooth="yes"/>
      <point x="415" y="-0" type="line"/>
      <point x="305" y="-0" type="line"/>
      <point x="377.482" y="341" type="line" smooth="yes"/>
      <point x="381.733" y="361"/>
      <point x="368.11" y="391"/>
      <point x="336.723" y="408"/>
      <point x="315.723" y="408" type="qcurve" smooth="yes"/>
      <point x="298.723" y="408"/>
      <point x="256.172" y="396"/>
      <point x="230.622" y="384" type="qcurve"/>
      <point x="149" y="-0" type="line"/>
      <point x="39" y="-0" type="line"/>
      <point x="145.066" y="499" type="line"/>
      <point x="255.066" y="499" type="line"/>
      <point x="249.964" y="475" type="line"/>
      <point x="263.665" y="483"/>
      <point x="324.766" y="507"/>
      <point x="355.766" y="507" type="qcurve" smooth="yes"/>
      <point x="390.766" y="507"/>
      <point x="455.302" y="486"/>
      <point x="474.563" y="459" type="qcurve"/>
      <point x="511.24" y="481"/>
      <point x="596.766" y="507"/>
      <point x="621.766" y="507" type="qcurve" smooth="yes"/>
      <point x="651.766" y="507"/>
      <point x="707.578" y="492"/>
      <point x="748.713" y="455"/>
      <point x="765.322" y="392"/>
      <point x="755.119" y="344" type="qcurve" smooth="yes"/>
      <point x="682" y="-0" type="line"/>
      <point x="572" y="-0" type="line"/>
    </contour>
  </outline>
</glyph>
<glyph name="n" format="1">
  <advance width="445"/>
  <unicode hex="006E"/>
    <anchor name="top" x="337.843" y="545"/>
    <anchor name="bottom" x="222" y="0"/>
  <outline>
    <contour>
      <point x="371.694" y="342" type="line" smooth="yes"/>
      <point x="375.733" y="361"/>
      <point x="364.11" y="391"/>
      <point x="335.936" y="409"/>
      <point x="314.936" y="409" type="qcurve" smooth="yes"/>
      <point x="297.936" y="409"/>
      <point x="256.598" y="398"/>
      <point x="229.834" y="385" type="qcurve"/>
      <point x="147.787" y="-1" type="line"/>
      <point x="38.7874" y="-1" type="line"/>
      <point x="145.066" y="499" type="line"/>
      <point x="254.066" y="499" type="line"/>
      <point x="249.177" y="476" type="line"/>
      <point x="263.877" y="484"/>
      <point x="324.979" y="508"/>
      <point x="355.979" y="508" type="qcurve" smooth="yes"/>
      <point x="385.979" y="508"/>
      <point x="439.79" y="493"/>
      <point x="477.926" y="456"/>
      <point x="491.535" y="393"/>
      <point x="481.332" y="345" type="qcurve" smooth="yes"/>
      <point x="407.787" y="-1" type="line"/>
      <point x="298.787" y="-1" type="line"/>
    </contour>
    <contour>
      <point x="337.843" y="545" type="move" name="top"/>
    </contour>
    <contour>
      <point x="222" y="0" type="move" name="bottom"/>
    </contour>
  </outline>
</glyph>
<glyph name="o" format="1">
  <advance width="432"/>
  <unicode hex="006F"/>
    <anchor name="top" x="331.843" y="545"/>
    <anchor name="tonos" x="331.843" y="545"/>
  <outline>
    <contour>
      <point x="439.11" y="184" type="line" smooth="yes"/>
      <point x="421.043" y="99"/>
      <point x="308.874" y="-10"/>
      <point x="215.874" y="-10" type="qcurve" smooth="yes"/>
      <point x="149.874" y="-10"/>
      <point x="79.565" y="45"/>
      <point x="59.27" y="133"/>
      <point x="70.1104" y="184" type="qcurve" smooth="yes"/>
      <point x="98.1679" y="316" type="line" smooth="yes"/>
      <point x="118.361" y="411"/>
      <point x="235.404" y="510"/>
      <point x="326.404" y="510" type="qcurve" smooth="yes"/>
      <point x="413.404" y="510"/>
      <point x="486.511" y="407"/>
      <point x="467.168" y="316" type="qcurve" smooth="yes"/>
    </contour>
    <contour>
      <point x="355.443" y="322" type="line" smooth="yes"/>
      <point x="363.095" y="358"/>
      <point x="337.023" y="400"/>
      <point x="302.023" y="400" type="qcurve" smooth="yes"/>
      <point x="266.023" y="400"/>
      <point x="218.52" y="360"/>
      <point x="210.443" y="322" type="qcurve" smooth="yes"/>
      <point x="179.41" y="176" type="line" smooth="yes"/>
      <point x="175.159" y="156"/>
      <point x="182.507" y="120"/>
      <point x="211.831" y="98"/>
      <point x="237.831" y="98" type="qcurve" smooth="yes"/>
      <point x="262.831" y="98"/>
      <point x="298.082" y="118"/>
      <point x="319.734" y="154"/>
      <point x="324.41" y="176" type="qcurve" smooth="yes"/>
    </contour>
    <contour>
      <point x="331.843" y="545" type="move" name="top"/>
    </contour>
    <contour>
      <point x="331.843" y="545" type="move" name="tonos"/>
    </contour>
  </outline>
</glyph>
<glyph name="r" format="1">
  <advance width="373"/>
  <unicode hex="0072"/>
    <anchor name="top" x="301.843" y="545"/>
    <anchor name="bottom" x="186" y="0"/>
  <outline>
    <contour>
      <point x="417.936" y="409" type="line"/>
      <point x="417.936" y="409"/>
      <point x="394.424" y="416"/>
      <point x="367.424" y="416" type="qcurve" smooth="yes"/>
      <point x="345.424" y="416"/>
      <point x="300.148" y="410"/>
      <point x="254.598" y="398"/>
      <point x="231.472" y="388" type="qcurve"/>
      <point x="149" y="0" type="line"/>
      <point x="39" y="0" type="line"/>
      <point x="145.066" y="499" type="line"/>
      <point x="255.066" y="499" type="line"/>
      <point x="250.815" y="479" type="line"/>
      <point x="279.428" y="496"/>
      <point x="345.254" y="514"/>
      <point x="377.254" y="514" type="qcurve" smooth="yes"/>
      <point x="400.254" y="514"/>
      <point x="438.341" y="505"/>
      <point x="453.066" y="499" type="qcurve"/>
    </contour>
    <contour>
      <point x="301.843" y="545" type="move" name="top"/>
    </contour>
    <contour>
      <point x="186" y="0" type="move" name="bottom"/>
    </contour>
  </outline>
</glyph>
<glyph name="s" format="1">
  <advance width="426"/>
  <unicode hex="0073"/>
    <anchor name="bottom" x="213" y="0"/>
    <anchor name="top" x="328.843" y="545"/>
  <outline>
    <contour>
      <point x="395.834" y="385" type="line"/>
      <point x="386.11" y="391"/>
      <point x="360.023" y="400"/>
      <point x="330.085" y="405"/>
      <point x="313.085" y="405" type="qcurve" smooth="yes"/>
      <point x="298.085" y="405"/>
      <point x="277.235" y="401"/>
      <point x="268.598" y="398" type="qcurve"/>
      <point x="255.11" y="391"/>
      <point x="243.921" y="376"/>
      <point x="242.646" y="370" type="qcurve" smooth="yes"/>
      <point x="240.308" y="359"/>
      <point x="260.057" y="339"/>
      <point x="275.356" y="331" type="qcurve" smooth="yes"/>
      <point x="286.081" y="325"/>
      <point x="310.743" y="314"/>
      <point x="323.68" y="309" type="qcurve" smooth="yes"/>
      <point x="342.192" y="302"/>
      <point x="380.516" y="280"/>
      <point x="395.902" y="263" type="qcurve"/>
      <point x="415.864" y="244"/>
      <point x="436.11" y="184"/>
      <point x="427.821" y="145" type="qcurve" smooth="yes"/>
      <point x="419.318" y="105"/>
      <point x="372.14" y="43"/>
      <point x="339.464" y="21" type="qcurve"/>
      <point x="311.85" y="4"/>
      <point x="245.812" y="-15"/>
      <point x="210.812" y="-15" type="qcurve" smooth="yes"/>
      <point x="180.812" y="-15"/>
      <point x="131.575" y="-2"/>
      <point x="113.7" y="8" type="qcurve" smooth="yes"/>
      <point x="85.8888" y="23"/>
      <point x="50.3283" y="58"/>
      <point x="41.879" y="70" type="qcurve"/>
      <point x="120.12" y="137" type="line"/>
      <point x="126.632" y="130"/>
      <point x="150.381" y="110"/>
      <point x="166.681" y="102" type="qcurve" smooth="yes"/>
      <point x="178.405" y="96"/>
      <point x="208.705" y="88"/>
      <point x="225.705" y="88" type="qcurve" smooth="yes"/>
      <point x="241.705" y="88"/>
      <point x="270.405" y="96"/>
      <point x="280.681" y="102" type="qcurve" smooth="yes"/>
      <point x="291.169" y="109"/>
      <point x="306.207" y="128"/>
      <point x="309.545" y="139" type="qcurve"/>
      <point x="312.521" y="153"/>
      <point x="304.197" y="175"/>
      <point x="297.898" y="183" type="qcurve" smooth="yes"/>
      <point x="289.236" y="194"/>
      <point x="262.212" y="208"/>
      <point x="248.7" y="215" type="qcurve" smooth="yes"/>
      <point x="231.4" y="223"/>
      <point x="191.226" y="241"/>
      <point x="171.989" y="254" type="qcurve"/>
      <point x="148.815" y="272"/>
      <point x="120.506" y="327"/>
      <point x="129.646" y="370" type="qcurve" smooth="yes"/>
      <point x="137.936" y="409"/>
      <point x="187.051" y="466"/>
      <point x="220.877" y="484" type="qcurve" smooth="yes"/>
      <point x="247.853" y="498"/>
      <point x="307.829" y="512"/>
      <point x="337.829" y="512" type="qcurve" smooth="yes"/>
      <point x="358.829" y="512"/>
      <point x="398.129" y="504"/>
      <point x="434.728" y="488"/>
      <point x="449.177" y="476" type="qcurve"/>
    </contour>
    <contour>
      <point x="213" y="0" type="move" name="bottom"/>
    </contour>
    <contour>
      <point x="328.843" y="545" type="move" name="top"/>
    </contour>
  </outline>
</glyph>
<glyph name="t" format="1">
  <advance width="276"/>
  <unicode hex="0074"/>
    <anchor name="bottom" x="138" y="0"/>
    <anchor name="top" x="294.229" y="735"/>
  <outline>
    <contour>
      <point x="180.057" y="132" type="line" smooth="yes"/>
      <point x="172.831" y="98"/>
      <point x="205.942" y="75"/>
      <point x="240.942" y="75" type="qcurve"/>
      <point x="189.237" y="-13" type="line"/>
      <point x="113.662" y="-11"/>
      <point x="52.966" y="61"/>
      <point x="68.0575" y="132" type="qcurve" smooth="yes"/>
      <point x="188.364" y="698" type="line"/>
      <point x="300.364" y="698" type="line"/>
      <point x="258.066" y="499" type="line"/>
      <point x="353.066" y="499" type="line"/>
      <point x="308.598" y="398" type="line"/>
      <point x="236.598" y="398" type="line"/>
    </contour>
    <contour>
      <point x="138" y="0" type="move" name="bottom"/>
    </contour>
    <contour>
      <point x="294.229" y="735" type="move" name="top"/>
    </contour>
  </outline>
</glyph>
<glyph name="y" format="1">
  <advance width="482"/>
  <unicode hex="0079"/>
    <anchor name="top" x="356.843" y="545"/>
  <outline>
    <contour>
      <point x="545.037" y="433" type="line"/>
      <point x="514.762" y="427"/>
      <point x="488.259" y="387"/>
      <point x="482.945" y="362" type="qcurve" smooth="yes"/>
      <point x="393.459" y="-59" type="line" smooth="yes"/>
      <point x="384.319" y="-102"/>
      <point x="348.566" y="-162"/>
      <point x="319.952" y="-179" type="qcurve" smooth="yes"/>
      <point x="296.764" y="-194"/>
      <point x="234.725" y="-213"/>
      <point x="209.725" y="-213" type="qcurve"/>
      <point x="199.643" y="-124" type="line"/>
      <point x="212.643" y="-124"/>
      <point x="242.406" y="-111"/>
      <point x="254.532" y="-101" type="qcurve" smooth="yes"/>
      <point x="278.358" y="-83"/>
      <point x="285.797" y="-48" type="qcurve" smooth="yes"/>
      <point x="301.952" y="28" type="line"/>
      <point x="289.613" y="17"/>
      <point x="226.725" y="-6"/>
      <point x="194.725" y="-6" type="qcurve" smooth="yes"/>
      <point x="164.725" y="-6"/>
      <point x="111.126" y="10"/>
      <point x="72.7776" y="46"/>
      <point x="59.3812" y="110"/>
      <point x="69.5839" y="158" type="qcurve" smooth="yes"/>
      <point x="142.491" y="501" type="line"/>
      <point x="253.491" y="501" type="line"/>
      <point x="181.222" y="161" type="line" smooth="yes"/>
      <point x="177.183" y="142"/>
      <point x="187.806" y="112"/>
      <point x="215.98" y="94"/>
      <point x="235.98" y="94" type="qcurve" smooth="yes"/>
      <point x="258.98" y="94"/>
      <point x="299.657" y="116"/>
      <point x="328.521" y="153"/>
      <point x="333.41" y="176" type="qcurve" smooth="yes"/>
      <point x="379.322" y="392" type="line" smooth="yes"/>
      <point x="385.274" y="420"/>
      <point x="420.752" y="474"/>
      <point x="482.404" y="510"/>
      <point x="527.404" y="510" type="qcurve"/>
    </contour>
    <contour>
      <point x="356.843" y="545" type="move" name="top"/>
    </contour>
  </outline>
</glyph>
<glyph name="asciitilde" format="1">
  <advance width="266"/>
  <unicode hex="007E"/>
  <outline>
    <contour>
      <point x="354.554" y="299" type="line"/>
      <point x="331.941" y="282"/>
      <point x="278.414" y="256"/>
      <point x="248.414" y="256" type="qcurve"/>
      <point x="227.627" y="257"/>
      <point x="190.603" y="271"/>
      <point x="155.791" y="286"/>
      <point x="134.791" y="286" type="qcurve" smooth="yes"/>
      <point x="119.791" y="286"/>
      <point x="84.4531" y="275"/>
      <point x="63.9024" y="263" type="qcurve"/>
      <point x="42.8055" y="319" type="line"/>
      <point x="66.419" y="336"/>
      <point x="118.52" y="360"/>
      <point x="146.52" y="360" type="qcurve" smooth="yes"/>
      <point x="169.52" y="360"/>
      <point x="207.545" y="346"/>
      <point x="244.356" y="331"/>
      <point x="265.356" y="331" type="qcurve" smooth="yes"/>
      <point x="279.356" y="331"/>
      <point x="312.694" y="342"/>
      <point x="333.458" y="355" type="qcurve"/>
    </contour>
  </outline>
</glyph>
<glyph name="sterling" format="1">
  <advance width="432"/>
  <unicode hex="00A3"/>
  <outline>
    <contour>
      <point x="156.256" y="100" type="line"/>
      <point x="167.681" y="102"/>
      <point x="191.169" y="109"/>
      <point x="215.932" y="122"/>
      <point x="225.845" y="131" type="qcurve" smooth="yes"/>
      <point x="256.009" y="160"/>
      <point x="274.038" y="226"/>
      <point x="264.279" y="293"/>
      <point x="251.656" y="323" type="qcurve" smooth="yes"/>
      <point x="250.506" y="327"/>
      <point x="245.206" y="335"/>
      <point x="244.269" y="340" type="qcurve"/>
      <point x="108.269" y="340" type="line"/>
      <point x="130.163" y="443" type="line"/>
      <point x="199.163" y="443" type="line"/>
      <point x="197.225" y="448"/>
      <point x="193.138" y="457"/>
      <point x="191.414" y="463" type="qcurve" smooth="yes"/>
      <point x="186.027" y="480"/>
      <point x="178.467" y="515"/>
      <point x="178.119" y="551"/>
      <point x="181.945" y="569" type="qcurve"/>
      <point x="194.722" y="615"/>
      <point x="257.901" y="677"/>
      <point x="343.49" y="708"/>
      <point x="388.49" y="708" type="qcurve" smooth="yes"/>
      <point x="414.49" y="708"/>
      <point x="483.451" y="689"/>
      <point x="504.838" y="672" type="qcurve"/>
      <point x="451.708" y="582" type="line"/>
      <point x="434.621" y="591"/>
      <point x="390.172" y="603"/>
      <point x="361.172" y="603" type="qcurve" smooth="yes"/>
      <point x="345.172" y="603"/>
      <point x="303.771" y="587"/>
      <point x="299.094" y="565" type="qcurve" smooth="yes"/>
      <point x="296.331" y="552"/>
      <point x="304.341" y="505"/>
      <point x="317.177" y="476" type="qcurve" smooth="yes"/>
      <point x="320.476" y="468"/>
      <point x="330.863" y="451"/>
      <point x="336.163" y="443" type="qcurve"/>
      <point x="490.163" y="443" type="line"/>
      <point x="468.269" y="340" type="line"/>
      <point x="378.269" y="340" type="line"/>
      <point x="381.781" y="333"/>
      <point x="384.806" y="319"/>
      <point x="386.105" y="311" type="qcurve" smooth="yes"/>
      <point x="393.753" y="267"/>
      <point x="377.71" y="168"/>
      <point x="340.57" y="125" type="qcurve" smooth="yes"/>
      <point x="334.082" y="118"/>
      <point x="320.531" y="106"/>
      <point x="313.256" y="100" type="qcurve"/>
      <point x="417.256" y="100" type="line"/>
      <point x="396" y="-0" type="line"/>
      <point x="36" y="-0" type="line"/>
      <point x="57.2557" y="100" type="line"/>
    </contour>
  </outline>
</glyph>
<glyph name="overscore" format="1">
  <advance width="266"/>
  <unicode hex="00AF"/>
  <outline>
    <contour>
      <point x="543.98" y="708" type="line"/>
      <point x="505.72" y="618" type="line"/>
      <point x="284.72" y="618" type="line"/>
      <point x="322.98" y="708" type="line"/>
    </contour>
  </outline>
</glyph>
<glyph name="mu" format="1">
  <advance width="463"/>
  <unicode hex="00B5"/>
  <outline>
    <contour>
      <point x="431.806" y="112" type="line" smooth="yes"/>
      <point x="425.005" y="80"/>
      <point x="428.927" y="42"/>
      <point x="436.314" y="25"/>
      <point x="436.314" y="25" type="qcurve"/>
      <point x="335.787" y="-1" type="line"/>
      <point x="330.425" y="2"/>
      <point x="320.976" y="14"/>
      <point x="315.314" y="25"/>
      <point x="315.314" y="25" type="qcurve"/>
      <point x="313.401" y="16"/>
      <point x="279.213" y="1"/>
      <point x="240.087" y="-9"/>
      <point x="230.087" y="-9" type="qcurve" smooth="yes"/>
      <point x="218.087" y="-9"/>
      <point x="192.362" y="-3"/>
      <point x="166.763" y="13"/>
      <point x="155.164" y="29" type="qcurve"/>
      <point x="104.363" y="-210" type="line"/>
      <point x="-2.72387" y="-201" type="line"/>
      <point x="146.066" y="499" type="line"/>
      <point x="255.066" y="499" type="line"/>
      <point x="177.057" y="132" type="line" smooth="yes"/>
      <point x="175.357" y="124"/>
      <point x="193.169" y="109"/>
      <point x="221.831" y="98"/>
      <point x="249.555" y="92"/>
      <point x="256.555" y="92" type="qcurve" smooth="yes"/>
      <point x="288.555" y="92"/>
      <point x="324.632" y="130"/>
      <point x="330.584" y="158" type="qcurve" smooth="yes"/>
      <point x="402.428" y="496" type="line"/>
      <point x="516.191" y="509" type="line"/>
    </contour>
  </outline>
</glyph>
<glyph name="cedilla" format="1">
  <advance width="266"/>
  <unicode hex="00B8"/>
  <outline>
    <contour>
      <point x="172" y="0" type="line"/>
      <point x="139.073" y="-42" type="line"/>
      <point x="153.285" y="-41"/>
      <point x="163.498" y="-40"/>
      <point x="166.498" y="-40" type="qcurve" smooth="yes"/>
      <point x="197.498" y="-40"/>
      <point x="233.759" y="-67"/>
      <point x="246.831" y="-109"/>
      <point x="241.73" y="-133" type="qcurve" smooth="yes"/>
      <point x="232.165" y="-178"/>
      <point x="165.049" y="-235"/>
      <point x="103.049" y="-235" type="qcurve" smooth="yes"/>
      <point x="79.0492" y="-235"/>
      <point x="34.3245" y="-229"/>
      <point x="4.59989" y="-223"/>
      <point x="3.59989" y="-223" type="qcurve"/>
      <point x="9.57568" y="-209"/>
      <point x="16.4017" y="-191"/>
      <point x="25.4403" y="-172"/>
      <point x="30.4161" y="-158" type="qcurve"/>
      <point x="31.4161" y="-158"/>
      <point x="62.3533" y="-163"/>
      <point x="107.29" y="-168"/>
      <point x="128.29" y="-168" type="qcurve" smooth="yes"/>
      <point x="142.29" y="-168"/>
      <point x="160.991" y="-160"/>
      <point x="171.967" y="-146"/>
      <point x="173.667" y="-138" type="qcurve" smooth="yes"/>
      <point x="176.643" y="-124"/>
      <point x="164.256" y="-107"/>
      <point x="145.256" y="-107" type="qcurve" smooth="yes"/>
      <point x="130.256" y="-107"/>
      <point x="85.1937" y="-112"/>
      <point x="53.7686" y="-114" type="qcurve"/>
      <point x="44.0583" y="-75" type="line"/>
      <point x="106" y="0" type="line"/>
    </contour>
  </outline>
</glyph>
<glyph name="guillemotright" format="1">
  <advance width="541"/>
  <unicode hex="00BB"/>
  <outline>
    <contour>
      <point x="207.753" y="267" type="line"/>
      <point x="113.409" y="383" type="line"/>
      <point x="200.501" y="454" type="line"/>
      <point x="347.753" y="267" type="line"/>
      <point x="121.005" y="80" type="line"/>
      <point x="64.4584" y="148" type="line"/>
    </contour>
    <contour>
      <point x="428.753" y="267" type="line"/>
      <point x="333.409" y="383" type="line"/>
      <point x="420.501" y="454" type="line"/>
      <point x="567.753" y="267" type="line"/>
      <point x="341.005" y="80" type="line"/>
      <point x="284.458" y="148" type="line"/>
    </contour>
  </outline>
</glyph>
<glyph name="questiondown" format="1">
  <advance width="428"/>
  <unicode hex="00BF"/>
  <outline>
    <contour>
      <point x="431.222" y="161" type="line"/>
      <point x="420.381" y="110"/>
      <point x="359.377" y="30"/>
      <point x="268.812" y="-15"/>
      <point x="209.812" y="-15" type="qcurve"/>
      <point x="164.449" y="-12"/>
      <point x="89.8018" y="32"/>
      <point x="52.8063" y="112"/>
      <point x="65.1346" y="170" type="qcurve" smooth="yes"/>
      <point x="75.7624" y="220"/>
      <point x="136.854" y="291"/>
      <point x="176.719" y="328" type="qcurve" smooth="yes"/>
      <point x="201.395" y="350"/>
      <point x="234.622" y="384"/>
      <point x="256.636" y="417"/>
      <point x="272.926" y="456"/>
      <point x="279.665" y="483" type="qcurve" smooth="yes"/>
      <point x="280.728" y="488"/>
      <point x="283.491" y="501"/>
      <point x="290.93" y="536"/>
      <point x="298.795" y="573" type="qcurve"/>
      <point x="407.795" y="573" type="line"/>
      <point x="388.027" y="480" type="line" smooth="yes"/>
      <point x="381.225" y="448"/>
      <point x="356.747" y="394"/>
      <point x="323.97" y="348"/>
      <point x="288.467" y="308"/>
      <point x="270.641" y="290" type="qcurve" smooth="yes"/>
      <point x="248.965" y="268"/>
      <point x="208.675" y="229"/>
      <point x="180.173" y="189"/>
      <point x="175.497" y="167" type="qcurve" smooth="yes"/>
      <point x="170.183" y="142"/>
      <point x="183.956" y="108"/>
      <point x="214.13" y="90"/>
      <point x="230.918" y="89" type="qcurve"/>
      <point x="251.918" y="89"/>
      <point x="288.531" y="106"/>
      <point x="314.545" y="139"/>
      <point x="320.222" y="161" type="qcurve"/>
    </contour>
    <contour>
      <point x="381.49" y="708" type="qcurve" smooth="yes"/>
      <point x="406.49" y="708"/>
      <point x="433.263" y="674"/>
      <point x="427.949" y="649" type="qcurve" smooth="yes"/>
      <point x="422.635" y="624"/>
      <point x="380.983" y="588"/>
      <point x="355.983" y="588" type="qcurve" smooth="yes"/>
      <point x="330.983" y="588"/>
      <point x="304.635" y="624"/>
      <point x="309.949" y="649" type="qcurve" smooth="yes"/>
      <point x="315.263" y="674"/>
      <point x="356.49" y="708"/>
    </contour>
  </outline>
</glyph>
<glyph name="Thorn" format="1">
  <advance width="465"/>
  <unicode hex="00DE"/>
  <outline>
    <contour>
      <point x="495.641" y="290" type="line" smooth="yes"/>
      <point x="480.125" y="217"/>
      <point x="402.695" y="135"/>
      <point x="346.082" y="118" type="qcurve" smooth="yes"/>
      <point x="304.318" y="105"/>
      <point x="217.318" y="105"/>
      <point x="175.019" y="113" type="qcurve"/>
      <point x="151" y="-0" type="line"/>
      <point x="41" y="-0" type="line"/>
      <point x="189.364" y="698" type="line"/>
      <point x="299.364" y="698" type="line"/>
      <point x="280.234" y="608" type="line"/>
      <point x="305.935" y="616"/>
      <point x="357.06" y="626"/>
      <point x="382.06" y="626" type="qcurve" smooth="yes"/>
      <point x="428.06" y="626"/>
      <point x="504.771" y="587"/>
      <point x="521.418" y="543" type="qcurve" smooth="yes"/>
      <point x="530.104" y="518"/>
      <point x="532.476" y="468"/>
      <point x="526.462" y="435" type="qcurve"/>
    </contour>
    <contour>
      <point x="350.08" y="532" type="qcurve" smooth="yes"/>
      <point x="337.08" y="532"/>
      <point x="305.017" y="527"/>
      <point x="274.317" y="519"/>
      <point x="260.254" y="514" type="qcurve"/>
      <point x="194.787" y="206" type="line"/>
      <point x="208.149" y="203"/>
      <point x="238.299" y="199"/>
      <point x="271.299" y="199"/>
      <point x="303.362" y="204"/>
      <point x="317.212" y="208" type="qcurve" smooth="yes"/>
      <point x="349.125" y="217"/>
      <point x="381.052" y="259"/>
      <point x="387.641" y="290" type="qcurve" smooth="yes"/>
      <point x="420.225" y="448" type="line" smooth="yes"/>
      <point x="423.414" y="463"/>
      <point x="421.515" y="487"/>
      <point x="417.641" y="497" type="qcurve" smooth="yes"/>
      <point x="410.254" y="514"/>
      <point x="371.08" y="532"/>
    </contour>
  </outline>
</glyph>
<glyph name="ae" format="1">
  <advance width="698"/>
  <unicode hex="00E6"/>
  <outline>
    <contour>
      <point x="449.883" y="150" type="line" smooth="yes"/>
      <point x="447.333" y="138"/>
      <point x="449.657" y="116"/>
      <point x="460.256" y="100"/>
      <point x="479.343" y="91"/>
      <point x="494.343" y="91" type="qcurve" smooth="yes"/>
      <point x="520.343" y="91"/>
      <point x="593.444" y="115"/>
      <point x="628.845" y="131" type="qcurve"/>
      <point x="648.652" y="36" type="line"/>
      <point x="609.976" y="14"/>
      <point x="529.449" y="-12"/>
      <point x="484.449" y="-12" type="qcurve" smooth="yes"/>
      <point x="459.449" y="-12"/>
      <point x="412.638" y="3"/>
      <point x="403.763" y="13" type="qcurve"/>
      <point x="400.575" y="-2" type="line"/>
      <point x="384.15" y="-4"/>
      <point x="352.512" y="-7"/>
      <point x="319.087" y="-9"/>
      <point x="284.874" y="-10"/>
      <point x="249.662" y="-11"/>
      <point x="231.662" y="-11" type="qcurve" smooth="yes"/>
      <point x="175.662" y="-11"/>
      <point x="90.0386" y="19"/>
      <point x="50.5552" y="92"/>
      <point x="60.9463" y="155" type="qcurve"/>
      <point x="81.5643" y="252" type="line" smooth="yes"/>
      <point x="89.6414" y="290"/>
      <point x="122.545" y="346"/>
      <point x="168.197" y="382"/>
      <point x="221.023" y="400"/>
      <point x="248.023" y="400" type="qcurve" smooth="yes"/>
      <point x="283.023" y="400"/>
      <point x="358.008" y="367"/>
      <point x="373.994" y="334" type="qcurve"/>
      <point x="381.858" y="371"/>
      <point x="369.998" y="414"/>
      <point x="326.824" y="432"/>
      <point x="288.037" y="433" type="qcurve"/>
      <point x="295.288" y="453"/>
      <point x="306.94" y="489"/>
      <point x="312.979" y="508" type="qcurve"/>
      <point x="338.979" y="508"/>
      <point x="391.916" y="503"/>
      <point x="441.515" y="487"/>
      <point x="459.689" y="469" type="qcurve"/>
      <point x="493.153" y="490"/>
      <point x="561.404" y="510"/>
      <point x="598.404" y="510" type="qcurve" smooth="yes"/>
      <point x="647.404" y="510"/>
      <point x="719.114" y="471"/>
      <point x="750.385" y="397"/>
      <point x="738.907" y="343" type="qcurve" smooth="yes"/>
      <point x="705.748" y="187" type="line"/>
      <point x="454.985" y="174" type="line"/>
    </contour>
    <contour>
      <point x="356.564" y="252" type="line"/>
      <point x="351.414" y="256"/>
      <point x="322.028" y="273"/>
      <point x="279.004" y="287"/>
      <point x="255.004" y="287" type="qcurve" smooth="yes"/>
      <point x="240.004" y="287"/>
      <point x="213.091" y="278"/>
      <point x="193.627" y="257"/>
      <point x="189.588" y="238" type="qcurve" smooth="yes"/>
      <point x="175.772" y="173" type="line" smooth="yes"/>
      <point x="171.734" y="154"/>
      <point x="172.357" y="124"/>
      <point x="189.681" y="102"/>
      <point x="228.13" y="90"/>
      <point x="262.13" y="90" type="qcurve" smooth="yes"/>
      <point x="268.13" y="90"/>
      <point x="288.343" y="91"/>
      <point x="308.768" y="93"/>
      <point x="322.98" y="94"/>
      <point x="322.98" y="94" type="qcurve"/>
    </contour>
    <contour>
      <point x="624.656" y="323" type="line" smooth="yes"/>
      <point x="628.269" y="340"/>
      <point x="628.433" y="369"/>
      <point x="619.322" y="392"/>
      <point x="596.085" y="405"/>
      <point x="575.085" y="405" type="qcurve"/>
      <point x="556.873" y="404"/>
      <point x="527.96" y="395"/>
      <point x="505.709" y="375"/>
      <point x="491.545" y="346"/>
      <point x="487.293" y="326" type="qcurve" smooth="yes"/>
      <point x="476.453" y="275" type="line"/>
      <point x="616.366" y="284" type="line"/>
    </contour>
  </outline>
</glyph>
<glyph name="thorn" format="1">
  <advance width="446"/>
  <unicode hex="00FE"/>
  <outline>
    <contour>
      <point x="255.365" y="491" type="line"/>
      <point x="274.066" y="499"/>
      <point x="317.979" y="508"/>
      <point x="336.979" y="508" type="qcurve" smooth="yes"/>
      <point x="398.979" y="508"/>
      <point x="473.563" y="459"/>
      <point x="498.284" y="373"/>
      <point x="485.955" y="315" type="qcurve" smooth="yes"/>
      <point x="472.564" y="252"/>
      <point x="407.647" y="163"/>
      <point x="314.657" y="116"/>
      <point x="258.657" y="116" type="qcurve" smooth="yes"/>
      <point x="233.657" y="116"/>
      <point x="193.207" y="128"/>
      <point x="180.545" y="139" type="qcurve"/>
      <point x="151" y="-0" type="line"/>
      <point x="41" y="-0" type="line"/>
      <point x="189.79" y="700" type="line"/>
      <point x="299.79" y="700" type="line"/>
    </contour>
    <contour>
      <point x="319.873" y="404" type="qcurve" smooth="yes"/>
      <point x="298.873" y="404"/>
      <point x="255.197" y="382"/>
      <point x="223.119" y="344"/>
      <point x="217.593" y="318" type="qcurve" smooth="yes"/>
      <point x="210.366" y="284"/>
      <point x="224.014" y="240"/>
      <point x="257.762" y="220"/>
      <point x="280.762" y="220" type="qcurve" smooth="yes"/>
      <point x="300.762" y="220"/>
      <point x="339.014" y="240"/>
      <point x="369.941" y="282"/>
      <point x="377.168" y="316" type="qcurve" smooth="yes"/>
      <point x="381.844" y="338"/>
      <point x="374.346" y="378"/>
      <point x="345.873" y="404"/>
    </contour>
  </outline>
</glyph>
<glyph name="dslash" format="1">
  <advance width="459"/>
  <unicode hex="0111"/>
  <outline>
    <contour>
      <point x="692.237" y="551" type="line"/>
      <point x="730.072" y="640" type="line"/>
      <point x="496.072" y="640" type="line"/>
      <point x="458.237" y="551" type="line"/>
    </contour>
    <component base="d" yxScale="0.212557"/>
  </outline>
</glyph>
<glyph name="hbar" format="1">
  <advance width="476"/>
  <unicode hex="0127"/>
  <outline>
    <contour>
      <point x="380.481" y="548" type="line"/>
      <point x="145.481" y="548" type="line"/>
      <point x="164.824" y="639" type="line"/>
      <point x="399.824" y="639" type="line"/>
    </contour>
    <contour>
      <point x="281.177" y="476" type="line"/>
      <point x="296.09" y="485"/>
      <point x="357.191" y="509"/>
      <point x="388.191" y="509" type="qcurve" smooth="yes"/>
      <point x="418.191" y="509"/>
      <point x="471.79" y="493"/>
      <point x="510.138" y="457"/>
      <point x="524.535" y="393"/>
      <point x="514.332" y="345" type="qcurve" smooth="yes"/>
      <point x="441" y="-0" type="line"/>
      <point x="332" y="-0" type="line"/>
      <point x="404.907" y="343" type="line" smooth="yes"/>
      <point x="408.945" y="362"/>
      <point x="397.322" y="392"/>
      <point x="367.936" y="409"/>
      <point x="346.936" y="409" type="qcurve" smooth="yes"/>
      <point x="329.936" y="409"/>
      <point x="288.598" y="398"/>
      <point x="262.047" y="386" type="qcurve"/>
      <point x="180" y="-0" type="line"/>
      <point x="71" y="-0" type="line"/>
      <point x="219.364" y="698" type="line"/>
      <point x="328.364" y="698" type="line"/>
    </contour>
  </outline>
</glyph>
<glyph name="IJ" format="1">
  <advance width="537"/>
  <unicode hex="0132"/>
  <outline>
    <contour>
      <point x="655.364" y="698" type="line"/>
      <point x="546.323" y="185" type="line" smooth="yes"/>
      <point x="524.855" y="84"/>
      <point x="452.652" y="36" type="qcurve" smooth="yes"/>
      <point x="381.662" y="-11"/>
      <point x="295.662" y="-11" type="qcurve" smooth="yes"/>
      <point x="252.662" y="-11"/>
      <point x="183.763" y="13"/>
      <point x="156.652" y="36" type="qcurve"/>
      <point x="131.753" y="60"/>
      <point x="115.695" y="135"/>
      <point x="126.323" y="185" type="qcurve" smooth="yes"/>
      <point x="134.4" y="223" type="line"/>
      <point x="244.4" y="223" type="line"/>
      <point x="240.362" y="204" type="line" smooth="yes"/>
      <point x="234.623" y="177"/>
      <point x="241.908" y="136"/>
      <point x="254.932" y="122" type="qcurve" smooth="yes"/>
      <point x="263.806" y="112"/>
      <point x="296.468" y="101"/>
      <point x="318.468" y="101" type="qcurve" smooth="yes"/>
      <point x="340.468" y="101"/>
      <point x="378.231" y="114"/>
      <point x="393.995" y="127" type="qcurve" smooth="yes"/>
      <point x="410.758" y="140"/>
      <point x="435.473" y="181"/>
      <point x="440.787" y="206" type="qcurve" smooth="yes"/>
      <point x="522.833" y="592" type="line"/>
      <point x="464.046" y="593" type="line"/>
      <point x="486.364" y="698" type="line"/>
    </contour>
    <contour>
      <point x="345.364" y="698" type="line"/>
      <point x="265.018" y="320" type="line"/>
      <point x="155.018" y="320" type="line"/>
      <point x="212.621" y="591" type="line"/>
      <point x="149.046" y="593" type="line"/>
      <point x="171.364" y="698" type="line"/>
    </contour>
  </outline>
</glyph>
<glyph name="ij" format="1">
  <advance width="451"/>
  <unicode hex="0133"/>
  <outline>
    <contour>
      <point x="249.49" y="708" type="qcurve" smooth="yes"/>
      <point x="274.49" y="708"/>
      <point x="302.476" y="675"/>
      <point x="297.162" y="650" type="qcurve" smooth="yes"/>
      <point x="291.848" y="625"/>
      <point x="249.408" y="590"/>
      <point x="224.408" y="590" type="qcurve" smooth="yes"/>
      <point x="199.408" y="590"/>
      <point x="172.848" y="625"/>
      <point x="178.162" y="650" type="qcurve" smooth="yes"/>
      <point x="183.476" y="675"/>
      <point x="224.49" y="708"/>
    </contour>
    <contour>
      <point x="557.949" y="649" type="qcurve" smooth="yes"/>
      <point x="552.848" y="625"/>
      <point x="509.408" y="590"/>
      <point x="484.408" y="590" type="qcurve" smooth="yes"/>
      <point x="459.408" y="590"/>
      <point x="432.848" y="625"/>
      <point x="437.949" y="649" type="qcurve" smooth="yes"/>
      <point x="443.263" y="674"/>
      <point x="484.49" y="708"/>
      <point x="509.49" y="708" type="qcurve" smooth="yes"/>
      <point x="534.49" y="708"/>
      <point x="563.263" y="674"/>
    </contour>
    <contour>
      <point x="409.491" y="501" type="line"/>
      <point x="519.491" y="501" type="line"/>
      <point x="400.459" y="-59" type="line" smooth="yes"/>
      <point x="391.319" y="-102"/>
      <point x="355.566" y="-162"/>
      <point x="326.952" y="-179" type="qcurve" smooth="yes"/>
      <point x="303.764" y="-194"/>
      <point x="241.725" y="-213"/>
      <point x="216.725" y="-213" type="qcurve"/>
      <point x="206.643" y="-124" type="line"/>
      <point x="219.643" y="-124"/>
      <point x="249.406" y="-111"/>
      <point x="261.532" y="-101" type="qcurve" smooth="yes"/>
      <point x="285.358" y="-83"/>
      <point x="292.797" y="-48" type="qcurve" smooth="yes"/>
      <point x="308.952" y="28" type="line"/>
      <point x="296.613" y="17"/>
      <point x="233.725" y="-6"/>
      <point x="201.725" y="-6" type="qcurve" smooth="yes"/>
      <point x="171.725" y="-6"/>
      <point x="118.126" y="10"/>
      <point x="79.7776" y="46"/>
      <point x="66.3812" y="110"/>
      <point x="76.5839" y="158" type="qcurve" smooth="yes"/>
      <point x="149.491" y="501" type="line"/>
      <point x="260.491" y="501" type="line"/>
      <point x="188.222" y="161" type="line" smooth="yes"/>
      <point x="184.183" y="142"/>
      <point x="194.806" y="112"/>
      <point x="222.98" y="94"/>
      <point x="242.98" y="94" type="qcurve" smooth="yes"/>
      <point x="265.98" y="94"/>
      <point x="306.657" y="116"/>
      <point x="335.521" y="153"/>
      <point x="340.41" y="176" type="qcurve" smooth="yes"/>
    </contour>
  </outline>
</glyph>
<glyph name="OE" format="1">
  <advance width="715"/>
  <unicode hex="0152"/>
  <outline>
    <contour>
      <point x="346" y="-0" type="line"/>
      <point x="351.952" y="28" type="line"/>
      <point x="342.976" y="14"/>
      <point x="304.15" y="-4"/>
      <point x="259.449" y="-12"/>
      <point x="241.449" y="-12" type="qcurve" smooth="yes"/>
      <point x="182.449" y="-12"/>
      <point x="96.8018" y="32"/>
      <point x="61.5068" y="120"/>
      <point x="75.1104" y="184" type="qcurve" smooth="yes"/>
      <point x="143.341" y="505" type="line" smooth="yes"/>
      <point x="165.234" y="608"/>
      <point x="297.765" y="714"/>
      <point x="396.765" y="714" type="qcurve" smooth="yes"/>
      <point x="424.765" y="714"/>
      <point x="481.089" y="692"/>
      <point x="489.476" y="675" type="qcurve"/>
      <point x="494.364" y="698" type="line"/>
      <point x="828.364" y="698" type="line"/>
      <point x="804.983" y="588" type="line"/>
      <point x="580.983" y="588" type="line"/>
      <point x="543.786" y="413" type="line"/>
      <point x="680.786" y="413" type="line"/>
      <point x="626.467" y="308" type="line"/>
      <point x="521.467" y="308" type="line"/>
      <point x="477.256" y="100" type="line"/>
      <point x="699.256" y="100" type="line"/>
      <point x="678" y="-0" type="line"/>
    </contour>
    <contour>
      <point x="189.362" y="204" type="line" smooth="yes"/>
      <point x="182.56" y="172"/>
      <point x="193.57" y="125"/>
      <point x="233.256" y="100"/>
      <point x="267.256" y="100" type="qcurve" smooth="yes"/>
      <point x="298.256" y="100"/>
      <point x="348.782" y="126"/>
      <point x="382.985" y="174"/>
      <point x="389.574" y="205" type="qcurve" smooth="yes"/>
      <point x="445.476" y="468" type="line" smooth="yes"/>
      <point x="459.08" y="532"/>
      <point x="430.471" y="595"/>
      <point x="372.471" y="595" type="qcurve" smooth="yes"/>
      <point x="317.471" y="595"/>
      <point x="259.505" y="534"/>
      <point x="245.689" y="469" type="qcurve" smooth="yes"/>
    </contour>
  </outline>
</glyph>
<glyph name="tbar" format="1">
  <advance width="317"/>
  <unicode hex="0167"/>
  <outline>
    <contour>
      <point x="313.951" y="235" type="line"/>
      <point x="78.9508" y="235" type="line"/>
      <point x="98.2934" y="326" type="line"/>
      <point x="333.293" y="326" type="line"/>
    </contour>
    <contour>
      <point x="220.057" y="132" type="line" smooth="yes"/>
      <point x="212.831" y="98"/>
      <point x="245.942" y="75"/>
      <point x="280.942" y="75" type="qcurve"/>
      <point x="229.237" y="-13" type="line"/>
      <point x="153.662" y="-11"/>
      <point x="92.966" y="61"/>
      <point x="108.057" y="132" type="qcurve" smooth="yes"/>
      <point x="228.364" y="698" type="line"/>
      <point x="340.364" y="698" type="line"/>
      <point x="298.066" y="499" type="line"/>
      <point x="393.066" y="499" type="line"/>
      <point x="348.598" y="398" type="line"/>
      <point x="276.598" y="398" type="line"/>
    </contour>
  </outline>
</glyph>
<glyph name="dotlessj" format="1">
  <advance width="250"/>
  <unicode hex="0237"/>
    <anchor name="top" x="437.458" y="735"/>
  <outline>
    <contour>
      <point x="183.068" y="-61" type="line" smooth="yes"/>
      <point x="165.638" y="-102"/>
      <point x="117.257" y="-157"/>
      <point x="87.755" y="-177" type="qcurve" smooth="yes"/>
      <point x="58.6778" y="-196"/>
      <point x="-12.3993" y="-215"/>
      <point x="-32.3993" y="-215" type="qcurve"/>
      <point x="-24.1391" y="-125" type="line"/>
      <point x="-5.43869" y="-121"/>
      <point x="21.3873" y="-112"/>
      <point x="36.6385" y="-102" type="qcurve" smooth="yes"/>
      <point x="62.8654" y="-85"/>
      <point x="77.7443" y="-50" type="qcurve" smooth="yes"/>
      <point x="269.045" y="400" type="line"/>
      <point x="202.296" y="410" type="line"/>
      <point x="240.131" y="499" type="line"/>
      <point x="421.131" y="499" type="line"/>
    </contour>
    <contour>
      <point x="437.458" y="735" type="move" name="top"/>
    </contour>
  </outline>
</glyph>
<glyph name="caron" format="1">
  <advance width="266"/>
  <unicode hex="02C7"/>
  <outline>
    <contour>
      <point x="415.19" y="716" type="line"/>
      <point x="255.983" y="588" type="line"/>
      <point x="154.978" y="715" type="line"/>
      <point x="219.031" y="767" type="line"/>
      <point x="276.814" y="686" type="line"/>
      <point x="374.243" y="768" type="line"/>
    </contour>
  </outline>
</glyph>
<glyph name="Eta" format="1">
  <advance width="514"/>
  <unicode hex="0397"/>
    <anchor name="top" x="413.229" y="735"/>
    <anchor name="tonos" x="233.79" y="700"/>
  <outline>
    <contour>
      <point x="449.786" y="413" type="line"/>
      <point x="510.364" y="698" type="line"/>
      <point x="619.364" y="698" type="line"/>
      <point x="471" y="-0" type="line"/>
      <point x="362" y="-0" type="line"/>
      <point x="427.467" y="308" type="line"/>
      <point x="216.467" y="308" type="line"/>
      <point x="151" y="-0" type="line"/>
      <point x="41" y="-0" type="line"/>
      <point x="189.364" y="698" type="line"/>
      <point x="299.364" y="698" type="line"/>
      <point x="238.786" y="413" type="line"/>
    </contour>
    <contour>
      <point x="413.229" y="735" type="move" name="top"/>
    </contour>
    <contour>
      <point x="233.79" y="700" type="move" name="tonos"/>
    </contour>
  </outline>
</glyph>
<glyph name="Upsilon" format="1">
  <advance width="518"/>
  <unicode hex="03A5"/>
  <outline>
    <contour>
      <point x="510.159" y="156" type="line" smooth="yes"/>
      <point x="493.367" y="77"/>
      <point x="405.662" y="-11"/>
      <point x="321.961" y="-19" type="qcurve"/>
      <point x="304.816" y="65" type="line"/>
      <point x="327.454" y="68"/>
      <point x="365.492" y="87"/>
      <point x="394.42" y="129"/>
      <point x="401.859" y="164" type="qcurve" smooth="yes"/>
      <point x="417.376" y="237" type="line"/>
      <point x="417.376" y="237"/>
      <point x="385.55" y="219"/>
      <point x="331.511" y="200"/>
      <point x="297.086" y="198" type="qcurve"/>
      <point x="253.086" y="198"/>
      <point x="176.975" y="221"/>
      <point x="148.989" y="254" type="qcurve" smooth="yes"/>
      <point x="124.154" y="283"/>
      <point x="108.945" y="362"/>
      <point x="119.786" y="413" type="qcurve" smooth="yes"/>
      <point x="180.364" y="698" type="line"/>
      <point x="290.364" y="698" type="line"/>
      <point x="231.699" y="422" type="line" smooth="yes"/>
      <point x="225.11" y="391"/>
      <point x="231.907" y="343"/>
      <point x="245.506" y="327" type="qcurve" smooth="yes"/>
      <point x="256.743" y="314"/>
      <point x="298.767" y="300"/>
      <point x="325.767" y="300" type="qcurve" smooth="yes"/>
      <point x="366.767" y="300"/>
      <point x="403.719" y="328" type="qcurve" smooth="yes"/>
      <point x="420.694" y="342"/>
      <point x="448.409" y="383"/>
      <point x="453.085" y="405" type="qcurve" smooth="yes"/>
      <point x="515.364" y="698" type="line"/>
      <point x="625.364" y="698" type="line"/>
    </contour>
  </outline>
</glyph>
<glyph name="Omegagreek" format="1">
  <advance width="583"/>
  <unicode hex="03A9"/>
    <anchor name="tonos" x="394.579" y="700"/>
  <outline>
    <contour>
      <point x="631.076" y="226" type="line" smooth="yes"/>
      <point x="607.269" y="170"/>
      <point x="563.888" y="115"/>
      <point x="525.936" y="101" type="qcurve"/>
      <point x="574.936" y="101" type="line"/>
      <point x="548" y="0" type="line"/>
      <point x="320" y="0" type="line"/>
      <point x="362.936" y="101" type="line"/>
      <point x="378.936" y="101"/>
      <point x="412.362" y="102"/>
      <point x="431.337" y="109" type="qcurve" smooth="yes"/>
      <point x="453.738" y="117"/>
      <point x="490.893" y="155"/>
      <point x="508.322" y="196" type="qcurve" smooth="yes"/>
      <point x="623.953" y="468" type="line" smooth="yes"/>
      <point x="647.759" y="524"/>
      <point x="626.967" y="588"/>
      <point x="582.967" y="588" type="qcurve" smooth="yes"/>
      <point x="505.967" y="588" type="line" smooth="yes"/>
      <point x="453.967" y="588"/>
      <point x="384.436" y="535"/>
      <point x="355.953" y="468" type="qcurve" smooth="yes"/>
      <point x="239.897" y="195" type="line" smooth="yes"/>
      <point x="224.168" y="158"/>
      <point x="226.738" y="117"/>
      <point x="237.337" y="109" type="qcurve" smooth="yes"/>
      <point x="245.362" y="102"/>
      <point x="279.936" y="101"/>
      <point x="304.936" y="101" type="qcurve"/>
      <point x="262" y="0" type="line"/>
      <point x="34" y="0" type="line"/>
      <point x="94.9364" y="101" type="line"/>
      <point x="141.936" y="101" type="line"/>
      <point x="121.487" y="107"/>
      <point x="118.192" y="151"/>
      <point x="135.573" y="206"/>
      <point x="144.076" y="226" type="qcurve" smooth="yes"/>
      <point x="261.407" y="502" type="line" smooth="yes"/>
      <point x="300.517" y="594"/>
      <point x="442.13" y="706"/>
      <point x="536.13" y="706" type="qcurve" smooth="yes"/>
      <point x="648.13" y="706" type="line" smooth="yes"/>
      <point x="741.13" y="706"/>
      <point x="787.517" y="594"/>
      <point x="748.407" y="502" type="qcurve" smooth="yes"/>
    </contour>
    <contour>
      <point x="394.579" y="700" type="move" name="tonos"/>
    </contour>
  </outline>
</glyph>
<glyph name="epsilon" format="1">
  <advance width="399"/>
  <unicode hex="03B5"/>
    <anchor name="tonos" x="314.843" y="545"/>
  <outline>
    <contour>
      <point x="391.598" y="398" type="line"/>
      <point x="371.085" y="405"/>
      <point x="326.998" y="414"/>
      <point x="297.998" y="414" type="qcurve"/>
      <point x="278.573" y="412"/>
      <point x="239.047" y="386"/>
      <point x="233.733" y="361" type="qcurve" smooth="yes"/>
      <point x="229.057" y="339"/>
      <point x="260.98" y="301"/>
      <point x="313.98" y="301" type="qcurve" smooth="yes"/>
      <point x="366.98" y="301" type="line"/>
      <point x="315.574" y="205" type="line"/>
      <point x="254.574" y="205" type="line"/>
      <point x="233.362" y="204"/>
      <point x="198.811" y="192"/>
      <point x="175.135" y="170"/>
      <point x="171.521" y="153" type="qcurve" smooth="yes"/>
      <point x="165.57" y="125"/>
      <point x="210.681" y="102"/>
      <point x="244.468" y="101" type="qcurve"/>
      <point x="266.468" y="101"/>
      <point x="310.956" y="108"/>
      <point x="353.719" y="121"/>
      <point x="369.42" y="129" type="qcurve"/>
      <point x="379.889" y="23" type="line"/>
      <point x="336.275" y="6"/>
      <point x="248.662" y="-11"/>
      <point x="201.662" y="-11" type="qcurve" smooth="yes"/>
      <point x="142.662" y="-11"/>
      <point x="74.652" y="36"/>
      <point x="52.1687" y="109"/>
      <point x="60.4584" y="148" type="qcurve" smooth="yes"/>
      <point x="68.9606" y="188"/>
      <point x="116.414" y="256"/>
      <point x="151.666" y="276" type="qcurve"/>
      <point x="138.429" y="289"/>
      <point x="123.719" y="328"/>
      <point x="124.071" y="372"/>
      <point x="132.322" y="392" type="qcurve"/>
      <point x="141.699" y="422"/>
      <point x="183.752" y="474"/>
      <point x="253.979" y="508"/>
      <point x="303.404" y="510" type="qcurve"/>
      <point x="330.404" y="510"/>
      <point x="381.916" y="503"/>
      <point x="409.215" y="495" type="qcurve"/>
    </contour>
    <contour>
      <point x="314.843" y="545" type="move" name="tonos"/>
    </contour>
  </outline>
</glyph>
<glyph name="zeta" format="1">
  <advance width="438"/>
  <unicode hex="03B6"/>
  <outline>
    <contour>
      <point x="542.109" y="598" type="line"/>
      <point x="516.708" y="582"/>
      <point x="462.993" y="541"/>
      <point x="410.003" y="494"/>
      <point x="383.689" y="469" type="qcurve" smooth="yes"/>
      <point x="354.525" y="440"/>
      <point x="297.559" y="379"/>
      <point x="274.182" y="349" type="qcurve" smooth="yes"/>
      <point x="239.83" y="305"/>
      <point x="192.4" y="223"/>
      <point x="185.386" y="190" type="qcurve" smooth="yes"/>
      <point x="181.347" y="171"/>
      <point x="187.695" y="135"/>
      <point x="203.932" y="122" type="qcurve" smooth="yes"/>
      <point x="223.531" y="106"/>
      <point x="283.468" y="101"/>
      <point x="352.019" y="113"/>
      <point x="382.507" y="120" type="qcurve"/>
      <point x="312.576" y="-209" type="line"/>
      <point x="208.102" y="-183" type="line"/>
      <point x="247" y="-0" type="line"/>
      <point x="202.725" y="-6"/>
      <point x="115.401" y="16"/>
      <point x="89.6278" y="50" type="qcurve"/>
      <point x="69.7292" y="74"/>
      <point x="58.183" y="142"/>
      <point x="67.1104" y="184" type="qcurve" smooth="yes"/>
      <point x="76.888" y="230"/>
      <point x="131.632" y="337"/>
      <point x="177.96" y="395" type="qcurve" smooth="yes"/>
      <point x="202.549" y="426"/>
      <point x="262.153" y="490"/>
      <point x="296.742" y="521" type="qcurve" smooth="yes"/>
      <point x="305.442" y="529"/>
      <point x="318.993" y="541"/>
      <point x="345.094" y="565"/>
      <point x="371.983" y="588" type="qcurve"/>
      <point x="221.983" y="588" type="line"/>
      <point x="245.364" y="698" type="line"/>
      <point x="516.364" y="698" type="line"/>
    </contour>
  </outline>
</glyph>
<glyph name="theta" format="1">
  <advance width="444"/>
  <unicode hex="03B8"/>
  <outline>
    <contour>
      <point x="365.49" y="708" type="qcurve"/>
      <point x="460.277" y="707"/>
      <point x="534.321" y="599"/>
      <point x="514.129" y="504" type="qcurve" smooth="yes"/>
      <point x="447.173" y="189" type="line" smooth="yes"/>
      <point x="426.98" y="94"/>
      <point x="313.725" y="-6"/>
      <point x="219.725" y="-6" type="qcurve" smooth="yes"/>
      <point x="126.725" y="-6"/>
      <point x="54.4054" y="96"/>
      <point x="74.1732" y="189" type="qcurve" smooth="yes"/>
      <point x="95.0037" y="287" type="line" smooth="yes"/>
      <point x="107.332" y="345"/>
      <point x="155.573" y="412"/>
      <point x="175.974" y="428" type="qcurve"/>
      <point x="166.65" y="450"/>
      <point x="158.003" y="494"/>
      <point x="158.93" y="536"/>
      <point x="162.331" y="552" type="qcurve" smooth="yes"/>
      <point x="171.684" y="596"/>
      <point x="229.775" y="667"/>
      <point x="315.49" y="708"/>
    </contour>
    <contour>
      <point x="401.341" y="505" type="line" smooth="yes"/>
      <point x="411.331" y="552"/>
      <point x="384.746" y="601"/>
      <point x="347.746" y="601" type="qcurve" smooth="yes"/>
      <point x="324.746" y="601"/>
      <point x="292.133" y="584"/>
      <point x="272.394" y="557"/>
      <point x="268.781" y="540" type="qcurve" smooth="yes"/>
      <point x="266.868" y="531"/>
      <point x="265.703" y="502"/>
      <point x="273.689" y="469"/>
      <point x="296.462" y="435"/>
      <point x="340.873" y="404"/>
      <point x="377.535" y="393" type="qcurve"/>
    </contour>
    <contour>
      <point x="241.893" y="103" type="qcurve" smooth="yes"/>
      <point x="268.893" y="103"/>
      <point x="305.57" y="125"/>
      <point x="328.222" y="161"/>
      <point x="332.685" y="182" type="qcurve" smooth="yes"/>
      <point x="362.868" y="324" type="line"/>
      <point x="322.293" y="326"/>
      <point x="261.332" y="345"/>
      <point x="238.308" y="359" type="qcurve"/>
      <point x="229.182" y="349"/>
      <point x="215.806" y="319"/>
      <point x="210.279" y="293" type="qcurve" smooth="yes"/>
      <point x="186.685" y="182" type="line" smooth="yes"/>
      <point x="182.222" y="161"/>
      <point x="189.57" y="125"/>
      <point x="216.893" y="103"/>
    </contour>
  </outline>
</glyph>
<glyph name="lambda" format="1">
  <advance width="516"/>
  <unicode hex="03BB"/>
  <outline>
    <contour>
      <point x="439.995" y="127" type="line"/>
      <point x="445.193" y="95"/>
      <point x="460.753" y="60"/>
      <point x="484.715" y="41"/>
      <point x="501.589" y="31" type="qcurve"/>
      <point x="501.589" y="31"/>
      <point x="472.913" y="9"/>
      <point x="435.324" y="-22" type="qcurve"/>
      <point x="393.449" y="-12"/>
      <point x="348.889" y="23"/>
      <point x="327.705" y="88"/>
      <point x="322.183" y="142" type="qcurve" smooth="yes"/>
      <point x="320.734" y="154"/>
      <point x="317.449" y="195"/>
      <point x="313.864" y="244"/>
      <point x="311.279" y="293"/>
      <point x="308.781" y="333"/>
      <point x="307.095" y="358"/>
      <point x="307.095" y="358" type="qcurve"/>
      <point x="307.095" y="358"/>
      <point x="300.458" y="355"/>
      <point x="298.82" y="352" type="qcurve" smooth="yes"/>
      <point x="298.395" y="350"/>
      <point x="276.342" y="298"/>
      <point x="242.337" y="218"/>
      <point x="205.207" y="128"/>
      <point x="171.415" y="49"/>
      <point x="150.787" y="-1"/>
      <point x="150.787" y="-1" type="qcurve"/>
      <point x="23.7874" y="-1" type="line"/>
      <point x="47.7776" y="46"/>
      <point x="87.5696" y="125"/>
      <point x="122.236" y="194"/>
      <point x="151.352" y="251"/>
      <point x="175.554" y="299"/>
      <point x="194.844" y="338"/>
      <point x="203.245" y="354" type="qcurve" smooth="yes"/>
      <point x="226.385" y="397"/>
      <point x="253.312" y="439"/>
      <point x="277.414" y="463"/>
      <point x="294.389" y="477" type="qcurve"/>
      <point x="286.694" y="549" type="line"/>
      <point x="283.007" y="574"/>
      <point x="268.959" y="602"/>
      <point x="243.51" y="614"/>
      <point x="221.51" y="614" type="qcurve"/>
      <point x="270.79" y="700" type="line"/>
      <point x="315.79" y="700"/>
      <point x="367.051" y="673"/>
      <point x="390.698" y="629"/>
      <point x="398.858" y="578"/>
      <point x="400.756" y="554" type="qcurve" smooth="yes"/>
    </contour>
  </outline>
</glyph>
<glyph name="rho" format="1">
  <advance width="438"/>
  <unicode hex="03C1"/>
  <outline>
    <contour>
      <point x="441.135" y="170" type="line" smooth="yes"/>
      <point x="421.792" y="79"/>
      <point x="315.387" y="-17"/>
      <point x="232.387" y="-17" type="qcurve" smooth="yes"/>
      <point x="216.387" y="-17"/>
      <point x="184.662" y="-11"/>
      <point x="158" y="-0"/>
      <point x="147.488" y="7" type="qcurve"/>
      <point x="99.6627" y="-218" type="line"/>
      <point x="-7.36154" y="-204" type="line"/>
      <point x="102.105" y="311" type="line" smooth="yes"/>
      <point x="122.298" y="406"/>
      <point x="240.554" y="506"/>
      <point x="331.554" y="506" type="qcurve" smooth="yes"/>
      <point x="417.554" y="506"/>
      <point x="490.448" y="402"/>
      <point x="471.105" y="311" type="qcurve" smooth="yes"/>
    </contour>
    <contour>
      <point x="362.38" y="317" type="line" smooth="yes"/>
      <point x="370.032" y="353"/>
      <point x="340.172" y="396"/>
      <point x="304.172" y="396" type="qcurve" smooth="yes"/>
      <point x="269.172" y="396"/>
      <point x="221.458" y="355"/>
      <point x="213.38" y="317" type="qcurve" smooth="yes"/>
      <point x="174.483" y="134" type="line" smooth="yes"/>
      <point x="170.657" y="116"/>
      <point x="193.768" y="93"/>
      <point x="231.43" y="82"/>
      <point x="247.43" y="82" type="qcurve" smooth="yes"/>
      <point x="279.43" y="82"/>
      <point x="320.719" y="121"/>
      <point x="327.946" y="155" type="qcurve" smooth="yes"/>
    </contour>
  </outline>
</glyph>
<glyph name="sigma1" format="1">
  <advance width="351"/>
  <unicode hex="03C2"/>
  <outline>
    <contour>
      <point x="184.337" y="218" type="line" smooth="yes"/>
      <point x="179.449" y="195"/>
      <point x="202.222" y="161"/>
      <point x="215.821" y="145" type="qcurve" smooth="yes"/>
      <point x="220.545" y="139"/>
      <point x="244.594" y="111"/>
      <point x="248.531" y="106" type="qcurve" smooth="yes"/>
      <point x="261.343" y="91"/>
      <point x="281.478" y="54"/>
      <point x="290.913" y="9"/>
      <point x="284.536" y="-21" type="qcurve" smooth="yes"/>
      <point x="279.222" y="-46"/>
      <point x="250.657" y="-91"/>
      <point x="212.368" y="-130"/>
      <point x="190.754" y="-147" type="qcurve"/>
      <point x="136.358" y="-83" type="line"/>
      <point x="145.846" y="-76"/>
      <point x="163.459" y="-59"/>
      <point x="177.923" y="-38"/>
      <point x="180.474" y="-26" type="qcurve" smooth="yes"/>
      <point x="184.725" y="-6"/>
      <point x="167.952" y="28"/>
      <point x="154.14" y="43" type="qcurve" smooth="yes"/>
      <point x="150.99" y="47"/>
      <point x="125.729" y="74"/>
      <point x="116.855" y="84" type="qcurve" smooth="yes"/>
      <point x="96.7436" y="107"/>
      <point x="64.9848" y="174"/>
      <point x="75.1876" y="222" type="qcurve"/>
      <point x="75.1876" y="222"/>
      <point x="81.5643" y="252"/>
      <point x="91.1293" y="297"/>
      <point x="100.907" y="343"/>
      <point x="107.921" y="376"/>
      <point x="108.346" y="378" type="qcurve" smooth="yes"/>
      <point x="116.936" y="409"/>
      <point x="165.264" y="467"/>
      <point x="250.341" y="505"/>
      <point x="311.341" y="505" type="qcurve" smooth="yes"/>
      <point x="332.341" y="505"/>
      <point x="371.641" y="497"/>
      <point x="408.24" y="481"/>
      <point x="422.689" y="469" type="qcurve"/>
      <point x="366.346" y="378" type="line"/>
      <point x="356.622" y="384"/>
      <point x="332.535" y="393"/>
      <point x="303.598" y="398"/>
      <point x="286.598" y="398" type="qcurve" smooth="yes"/>
      <point x="258.598" y="398"/>
      <point x="229.047" y="386"/>
      <point x="216.646" y="370"/>
      <point x="215.158" y="363" type="qcurve" smooth="yes"/>
    </contour>
  </outline>
</glyph>
<glyph name="sigma" format="1">
  <advance width="494"/>
  <unicode hex="03C3"/>
  <outline>
    <contour>
      <point x="568.051" y="466" type="line"/>
      <point x="549.8" y="446"/>
      <point x="512.699" y="422"/>
      <point x="477.936" y="409"/>
      <point x="461.511" y="407" type="qcurve"/>
      <point x="469.897" y="390"/>
      <point x="473.332" y="345"/>
      <point x="467.168" y="316" type="qcurve" smooth="yes"/>
      <point x="439.11" y="184" type="line" smooth="yes"/>
      <point x="421.043" y="99"/>
      <point x="309.874" y="-10"/>
      <point x="215.874" y="-10" type="qcurve" smooth="yes"/>
      <point x="149.874" y="-10"/>
      <point x="78.565" y="45"/>
      <point x="58.27" y="133"/>
      <point x="69.1104" y="184" type="qcurve" smooth="yes"/>
      <point x="98.0181" y="320" type="line" smooth="yes"/>
      <point x="113.747" y="394"/>
      <point x="187.389" y="477"/>
      <point x="280.404" y="510"/>
      <point x="324.404" y="510" type="qcurve" smooth="yes"/>
      <point x="355.404" y="510"/>
      <point x="413.703" y="502"/>
      <point x="444.703" y="502" type="qcurve"/>
      <point x="460.129" y="504"/>
      <point x="508.805" y="526"/>
      <point x="528.206" y="542" type="qcurve"/>
    </contour>
    <contour>
      <point x="354.443" y="322" type="line" smooth="yes"/>
      <point x="357.419" y="336"/>
      <point x="359.733" y="361"/>
      <point x="358.622" y="384"/>
      <point x="353.873" y="404"/>
      <point x="349.786" y="413" type="qcurve"/>
      <point x="340.211" y="415"/>
      <point x="324.636" y="417"/>
      <point x="314.636" y="417" type="qcurve" smooth="yes"/>
      <point x="295.636" y="417"/>
      <point x="252.235" y="401"/>
      <point x="217.158" y="363"/>
      <point x="210.144" y="330" type="qcurve" smooth="yes"/>
      <point x="177.41" y="176" type="line" smooth="yes"/>
      <point x="173.159" y="156"/>
      <point x="180.507" y="120"/>
      <point x="209.831" y="98"/>
      <point x="235.831" y="98" type="qcurve" smooth="yes"/>
      <point x="261.831" y="98"/>
      <point x="297.082" y="118"/>
      <point x="318.734" y="154"/>
      <point x="323.41" y="176" type="qcurve" smooth="yes"/>
    </contour>
  </outline>
</glyph>
<glyph name="upsilon" format="1">
  <advance width="443"/>
  <unicode hex="03C5"/>
    <anchor name="tonos" x="336.843" y="545"/>
    <anchor name="top" x="336.843" y="545"/>
  <outline>
    <contour>
      <point x="445.11" y="184" type="line" smooth="yes"/>
      <point x="427.043" y="99"/>
      <point x="315.874" y="-10"/>
      <point x="222.874" y="-10" type="qcurve" smooth="yes"/>
      <point x="156.874" y="-10"/>
      <point x="84.565" y="45"/>
      <point x="64.27" y="133"/>
      <point x="75.1104" y="184" type="qcurve" smooth="yes"/>
      <point x="142.066" y="499" type="line"/>
      <point x="256.066" y="499" type="line"/>
      <point x="187.41" y="176" type="line" smooth="yes"/>
      <point x="183.159" y="156"/>
      <point x="191.507" y="120"/>
      <point x="220.831" y="98"/>
      <point x="246.831" y="98" type="qcurve" smooth="yes"/>
      <point x="271.831" y="98"/>
      <point x="306.082" y="118"/>
      <point x="328.734" y="154"/>
      <point x="333.41" y="176" type="qcurve" smooth="yes"/>
      <point x="402.066" y="499" type="line"/>
      <point x="512.066" y="499" type="line"/>
    </contour>
    <contour>
      <point x="336.843" y="545" type="move" name="tonos"/>
    </contour>
    <contour>
      <point x="336.843" y="545" type="move" name="top"/>
    </contour>
  </outline>
</glyph>
<glyph name="phi" format="1">
  <advance width="589"/>
  <unicode hex="03C6"/>
  <outline>
    <contour>
      <point x="97.5302" y="313" type="line" smooth="yes"/>
      <point x="113.897" y="390"/>
      <point x="193.665" y="483"/>
      <point x="254.703" y="502" type="qcurve"/>
      <point x="296.274" y="420" type="line"/>
      <point x="260.786" y="413"/>
      <point x="220.071" y="372"/>
      <point x="207.53" y="313" type="qcurve" smooth="yes"/>
      <point x="177.56" y="172" type="line" smooth="yes"/>
      <point x="172.033" y="146"/>
      <point x="190.231" y="114"/>
      <point x="224.256" y="100"/>
      <point x="241.256" y="100" type="qcurve" smooth="yes"/>
      <point x="258.256" y="100" type="line"/>
      <point x="319.472" y="388" type="line" smooth="yes"/>
      <point x="330.525" y="440"/>
      <point x="417.554" y="506"/>
      <point x="478.554" y="506" type="qcurve" smooth="yes"/>
      <point x="535.554" y="506"/>
      <point x="607.501" y="454"/>
      <point x="634.583" y="365"/>
      <point x="622.255" y="307" type="qcurve" smooth="yes"/>
      <point x="597.173" y="189" type="line" smooth="yes"/>
      <point x="577.831" y="98"/>
      <point x="465.512" y="-7"/>
      <point x="369.512" y="-7" type="qcurve" smooth="yes"/>
      <point x="345.512" y="-7" type="line"/>
      <point x="301.088" y="-216" type="line"/>
      <point x="193.638" y="-204" type="line"/>
      <point x="235.512" y="-7" type="line"/>
      <point x="218.512" y="-7" type="line" smooth="yes"/>
      <point x="124.512" y="-7"/>
      <point x="51.8305" y="98"/>
      <point x="71.1732" y="189" type="qcurve" smooth="yes"/>
    </contour>
    <contour>
      <point x="392.256" y="100" type="line" smooth="yes"/>
      <point x="418.256" y="100"/>
      <point x="475.27" y="133"/>
      <point x="483.56" y="172" type="qcurve" smooth="yes"/>
      <point x="517.356" y="331" type="line" smooth="yes"/>
      <point x="520.332" y="345"/>
      <point x="520.921" y="376"/>
      <point x="512.66" y="403"/>
      <point x="492.274" y="420"/>
      <point x="473.274" y="420" type="qcurve" smooth="yes"/>
      <point x="455.274" y="420"/>
      <point x="431.598" y="398"/>
      <point x="427.771" y="380" type="qcurve" smooth="yes"/>
      <point x="368.256" y="100" type="line"/>
    </contour>
  </outline>
</glyph>
<glyph name="psi" format="1">
  <advance width="596"/>
  <unicode hex="03C8"/>
  <outline>
    <contour>
      <point x="636.341" y="505" type="line"/>
      <point x="651.027" y="480"/>
      <point x="651.549" y="426"/>
      <point x="643.259" y="387" type="qcurve" smooth="yes"/>
      <point x="601.173" y="189" type="line" smooth="yes"/>
      <point x="581.831" y="98"/>
      <point x="466.512" y="-7"/>
      <point x="370.512" y="-7" type="qcurve" smooth="yes"/>
      <point x="353.512" y="-7" type="line"/>
      <point x="309.088" y="-216" type="line"/>
      <point x="202.638" y="-204" type="line"/>
      <point x="244.512" y="-7" type="line"/>
      <point x="220.512" y="-7" type="line" smooth="yes"/>
      <point x="126.512" y="-7"/>
      <point x="55.8305" y="98"/>
      <point x="75.1732" y="189" type="qcurve" smooth="yes"/>
      <point x="141.066" y="499" type="line"/>
      <point x="251.066" y="499" type="line"/>
      <point x="181.56" y="172" type="line" smooth="yes"/>
      <point x="173.27" y="133"/>
      <point x="217.256" y="100"/>
      <point x="243.256" y="100" type="qcurve" smooth="yes"/>
      <point x="267.256" y="100" type="line"/>
      <point x="352.066" y="499" type="line"/>
      <point x="461.066" y="499" type="line"/>
      <point x="376.256" y="100" type="line"/>
      <point x="393.256" y="100" type="line" smooth="yes"/>
      <point x="411.256" y="100"/>
      <point x="450.231" y="114"/>
      <point x="482.033" y="146"/>
      <point x="487.56" y="172" type="qcurve" smooth="yes"/>
      <point x="533.259" y="387" type="line" smooth="yes"/>
      <point x="540.699" y="422"/>
      <point x="535.563" y="459"/>
      <point x="526.389" y="477" type="qcurve"/>
    </contour>
  </outline>
</glyph>
<glyph name="quotedblleft" format="1">
  <advance width="357"/>
  <unicode hex="201C"/>
  <outline>
    <contour>
      <point x="449.49" y="708" type="line"/>
      <point x="439.727" y="695"/>
      <point x="426.35" y="665"/>
      <point x="421.374" y="651" type="qcurve"/>
      <point x="439.099" y="645"/>
      <point x="458.297" y="613"/>
      <point x="454.046" y="593" type="qcurve" smooth="yes"/>
      <point x="448.732" y="568"/>
      <point x="405.08" y="532"/>
      <point x="380.08" y="532" type="qcurve" smooth="yes"/>
      <point x="355.08" y="532"/>
      <point x="328.732" y="568"/>
      <point x="334.046" y="593" type="qcurve" smooth="yes"/>
      <point x="341.273" y="627"/>
      <point x="371.901" y="677"/>
      <point x="405.703" y="709"/>
      <point x="429.104" y="725"/>
      <point x="429.104" y="725" type="qcurve"/>
    </contour>
    <contour>
      <point x="271.49" y="708" type="line"/>
      <point x="260.727" y="695"/>
      <point x="246.35" y="665"/>
      <point x="240.374" y="651" type="qcurve"/>
      <point x="259.099" y="645"/>
      <point x="277.297" y="613"/>
      <point x="273.046" y="593" type="qcurve" smooth="yes"/>
      <point x="267.732" y="568"/>
      <point x="226.08" y="532"/>
      <point x="201.08" y="532" type="qcurve" smooth="yes"/>
      <point x="176.08" y="532"/>
      <point x="148.732" y="568"/>
      <point x="154.046" y="593" type="qcurve" smooth="yes"/>
      <point x="161.273" y="627"/>
      <point x="192.901" y="677"/>
      <point x="225.703" y="709"/>
      <point x="250.104" y="725"/>
      <point x="250.104" y="725" type="qcurve"/>
    </contour>
  </outline>
</glyph>
<glyph name="perthousand" format="1">
  <advance width="1070"/>
  <unicode hex="2030"/>
  <outline>
    <contour>
      <point x="35" y="-0" type="line"/>
      <point x="720.364" y="698" type="line"/>
      <point x="837.364" y="698" type="line"/>
      <point x="149" y="-0" type="line"/>
    </contour>
    <contour>
      <point x="338.553" y="713" type="qcurve" smooth="yes"/>
      <point x="378.553" y="713"/>
      <point x="436.263" y="674"/>
      <point x="461.234" y="608"/>
      <point x="452.732" y="568" type="qcurve" smooth="yes"/>
      <point x="444.23" y="528"/>
      <point x="390.989" y="461"/>
      <point x="316.699" y="422"/>
      <point x="276.699" y="422" type="qcurve" smooth="yes"/>
      <point x="236.699" y="422"/>
      <point x="178.989" y="461"/>
      <point x="154.23" y="528"/>
      <point x="162.732" y="568" type="qcurve" smooth="yes"/>
      <point x="171.234" y="608"/>
      <point x="224.263" y="674"/>
      <point x="298.553" y="713"/>
    </contour>
    <contour>
      <point x="318.785" y="620" type="qcurve" smooth="yes"/>
      <point x="304.785" y="620"/>
      <point x="277.809" y="606"/>
      <point x="258.708" y="582"/>
      <point x="255.732" y="568" type="qcurve" smooth="yes"/>
      <point x="252.756" y="554"/>
      <point x="261.442" y="529"/>
      <point x="282.467" y="515"/>
      <point x="296.467" y="515" type="qcurve" smooth="yes"/>
      <point x="311.467" y="515"/>
      <point x="337.442" y="529"/>
      <point x="356.756" y="554"/>
      <point x="359.732" y="568" type="qcurve" smooth="yes"/>
      <point x="362.708" y="582"/>
      <point x="353.809" y="606"/>
      <point x="333.785" y="620"/>
    </contour>
    <contour>
      <point x="605.878" y="277" type="qcurve" smooth="yes"/>
      <point x="646.878" y="277"/>
      <point x="704.588" y="238"/>
      <point x="729.56" y="172"/>
      <point x="720.845" y="131" type="qcurve" smooth="yes"/>
      <point x="712.343" y="91"/>
      <point x="659.314" y="25"/>
      <point x="585.024" y="-14"/>
      <point x="544.024" y="-14" type="qcurve" smooth="yes"/>
      <point x="504.024" y="-14"/>
      <point x="447.314" y="25"/>
      <point x="422.343" y="91"/>
      <point x="430.845" y="131" type="qcurve" smooth="yes"/>
      <point x="439.56" y="172"/>
      <point x="492.588" y="238"/>
      <point x="565.878" y="277"/>
    </contour>
    <contour>
      <point x="586.11" y="184" type="qcurve" smooth="yes"/>
      <point x="572.11" y="184"/>
      <point x="544.922" y="169"/>
      <point x="525.821" y="145"/>
      <point x="522.845" y="131" type="qcurve" smooth="yes"/>
      <point x="519.869" y="117"/>
      <point x="528.768" y="93"/>
      <point x="549.792" y="79"/>
      <point x="563.792" y="79" type="qcurve" smooth="yes"/>
      <point x="578.792" y="79"/>
      <point x="605.768" y="93"/>
      <point x="624.869" y="117"/>
      <point x="627.845" y="131" type="qcurve" smooth="yes"/>
      <point x="630.821" y="145"/>
      <point x="621.922" y="169"/>
      <point x="601.11" y="184"/>
    </contour>
    <contour>
      <point x="951.878" y="277" type="qcurve" smooth="yes"/>
      <point x="991.878" y="277"/>
      <point x="1049.59" y="238"/>
      <point x="1075.56" y="172"/>
      <point x="1066.84" y="131" type="qcurve" smooth="yes"/>
      <point x="1058.34" y="91"/>
      <point x="1004.31" y="25"/>
      <point x="930.024" y="-14"/>
      <point x="890.024" y="-14" type="qcurve" smooth="yes"/>
      <point x="850.024" y="-14"/>
      <point x="792.314" y="25"/>
      <point x="767.343" y="91"/>
      <point x="775.845" y="131" type="qcurve" smooth="yes"/>
      <point x="784.56" y="172"/>
      <point x="837.588" y="238"/>
      <point x="911.878" y="277"/>
    </contour>
    <contour>
      <point x="932.11" y="184" type="qcurve" smooth="yes"/>
      <point x="917.11" y="184"/>
      <point x="889.922" y="169"/>
      <point x="871.821" y="145"/>
      <point x="868.845" y="131" type="qcurve" smooth="yes"/>
      <point x="865.869" y="117"/>
      <point x="873.768" y="93"/>
      <point x="894.792" y="79"/>
      <point x="909.792" y="79" type="qcurve" smooth="yes"/>
      <point x="924.792" y="79"/>
      <point x="951.768" y="93"/>
      <point x="970.869" y="117"/>
      <point x="973.845" y="131" type="qcurve" smooth="yes"/>
      <point x="976.821" y="145"/>
      <point x="967.922" y="169"/>
      <point x="947.11" y="184"/>
    </contour>
  </outline>
</glyph>
<glyph name="commaaccent" format="1">
  <advance width="266"/>
  <unicode hex="F6C3"/>
  <outline>
    <contour>
      <point x="50.8367" y="-236" type="line"/>
      <point x="61.8124" y="-222"/>
      <point x="74.9766" y="-193"/>
      <point x="81.1649" y="-178" type="qcurve"/>
      <point x="62.2277" y="-173"/>
      <point x="44.0295" y="-141"/>
      <point x="48.4932" y="-120" type="qcurve" smooth="yes"/>
      <point x="53.5946" y="-96"/>
      <point x="96.034" y="-61"/>
      <point x="121.034" y="-61" type="qcurve" smooth="yes"/>
      <point x="145.034" y="-61"/>
      <point x="171.595" y="-96"/>
      <point x="166.493" y="-120" type="qcurve" smooth="yes"/>
      <point x="159.266" y="-154"/>
      <point x="128.638" y="-204"/>
      <point x="94.6241" y="-237"/>
      <point x="71.2232" y="-253"/>
      <point x="71.2232" y="-253" type="qcurve"/>
    </contour>
  </outline>
</glyph>
<glyph name="ff" format="1">
  <advance width="522"/>
  <unicode hex="FB00"/>
  <outline>
    <contour>
      <point x="718.967" y="588" type="line"/>
      <point x="711.667" y="592"/>
      <point x="696.942" y="595"/>
      <point x="689.942" y="595" type="qcurve" smooth="yes"/>
      <point x="664.942" y="595"/>
      <point x="625.063" y="560"/>
      <point x="611.46" y="528" type="qcurve" smooth="yes"/>
      <point x="599.131" y="499" type="line"/>
      <point x="687.131" y="499" type="line"/>
      <point x="618.345" y="396" type="line"/>
      <point x="553.345" y="396" type="line"/>
      <point x="385" y="-0" type="line"/>
      <point x="275" y="-0" type="line"/>
      <point x="487.557" y="500" type="line" smooth="yes"/>
      <point x="496.484" y="521"/>
      <point x="515.488" y="561"/>
      <point x="528.416" y="582" type="qcurve"/>
      <point x="523.817" y="590"/>
      <point x="496.218" y="598"/>
      <point x="481.218" y="598" type="qcurve" smooth="yes"/>
      <point x="463.218" y="598"/>
      <point x="424.541" y="587"/>
      <point x="389.363" y="556"/>
      <point x="374.759" y="524" type="qcurve" smooth="yes"/>
      <point x="364.131" y="499" type="line"/>
      <point x="451.131" y="499" type="line"/>
      <point x="383.345" y="396" type="line"/>
      <point x="320.345" y="396" type="line"/>
      <point x="152" y="-0" type="line"/>
      <point x="39" y="-0" type="line"/>
      <point x="255.808" y="510" type="line" smooth="yes"/>
      <point x="280.464" y="568"/>
      <point x="358.449" y="655"/>
      <point x="465.705" y="705"/>
      <point x="533.705" y="705" type="qcurve" smooth="yes"/>
      <point x="558.705" y="705"/>
      <point x="611.603" y="693"/>
      <point x="641.202" y="685" type="qcurve"/>
      <point x="662.029" y="694"/>
      <point x="700.429" y="702"/>
      <point x="719.429" y="702" type="qcurve" smooth="yes"/>
      <point x="738.429" y="702"/>
      <point x="773.454" y="695"/>
      <point x="790.328" y="690" type="qcurve"/>
    </contour>
  </outline>
</glyph>
<glyph name="fi" format="1">
  <advance width="417"/>
  <unicode hex="FB01"/>
  <outline>
    <contour>
      <point x="154.355" y="538" type="line" smooth="yes"/>
      <point x="163.07" y="579"/>
      <point x="203.461" y="642"/>
      <point x="230.138" y="664" type="qcurve" smooth="yes"/>
      <point x="256.814" y="686"/>
      <point x="319.49" y="708"/>
      <point x="352.49" y="708" type="qcurve" smooth="yes"/>
      <point x="394.49" y="708"/>
      <point x="476.625" y="671"/>
      <point x="495.911" y="630" type="qcurve"/>
      <point x="390.795" y="573" type="line"/>
      <point x="381.196" y="589"/>
      <point x="353.959" y="602"/>
      <point x="339.959" y="602" type="qcurve" smooth="yes"/>
      <point x="318.959" y="602"/>
      <point x="288.708" y="582"/>
      <point x="268.843" y="545"/>
      <point x="263.742" y="521" type="qcurve" smooth="yes"/>
      <point x="259.066" y="499" type="line"/>
      <point x="346.066" y="499" type="line"/>
      <point x="300.172" y="396" type="line"/>
      <point x="237.172" y="396" type="line"/>
      <point x="153" y="-0" type="line"/>
      <point x="40" y="-0" type="line"/>
    </contour>
    <contour>
      <point x="377" y="-0" type="line"/>
      <point x="270" y="-0" type="line"/>
      <point x="376.066" y="499" type="line"/>
      <point x="483.066" y="499" type="line"/>
    </contour>
  </outline>
</glyph>
<glyph name="commaturnedabovecomb" format="1">
  <advance width="266"/>
    <anchor name="top" x="292.417" y="750"/>
    <anchor name="_top" x="260.534" y="600"/>
    <anchor name="top.1" x="292.417" y="750"/>
    <anchor name="_top.1" x="260.534" y="600"/>
  <outline>
    <contour>
      <point x="319.316" y="726" type="line"/>
      <point x="309.553" y="713"/>
      <point x="294.751" y="681"/>
      <point x="290.775" y="667" type="qcurve"/>
      <point x="307.925" y="663"/>
      <point x="326.911" y="630"/>
      <point x="322.447" y="609" type="qcurve" smooth="yes"/>
      <point x="317.133" y="584"/>
      <point x="274.906" y="550"/>
      <point x="249.906" y="550" type="qcurve" smooth="yes"/>
      <point x="224.906" y="550"/>
      <point x="197.133" y="584"/>
      <point x="202.447" y="609" type="qcurve" smooth="yes"/>
      <point x="209.674" y="643"/>
      <point x="240.302" y="693"/>
      <point x="274.104" y="725"/>
      <point x="297.504" y="741"/>
      <point x="297.504" y="741" type="qcurve"/>
    </contour>
    <contour>
      <point x="292.417" y="750" type="move" name="top"/>
    </contour>
    <contour>
      <point x="260.534" y="600" type="move" name="_top"/>
    </contour>
    <contour>
      <point x="292.417" y="750" type="move" name="top.1"/>
    </contour>
    <contour>
      <point x="260.534" y="600" type="move" name="_top.1"/>
    </contour>
  </outline>
</glyph>
<glyph name="dieresistonoscomb" format="1">
  <advance width="266"/>
    <anchor name="tonos" x="292.417" y="750"/>
    <anchor name="_tonos" x="260.534" y="600"/>
    <anchor name="tonos.1" x="292.417" y="750"/>
    <anchor name="_tonos.1" x="260.534" y="600"/>
    <anchor name="tonos.2" x="292.417" y="750"/>
    <anchor name="_tonos.2" x="260.534" y="600"/>
  <outline>
    <contour>
      <point x="260.302" y="693" type="qcurve" smooth="yes"/>
      <point x="254.988" y="668"/>
      <point x="213.761" y="634"/>
      <point x="188.761" y="634" type="qcurve" smooth="yes"/>
      <point x="163.761" y="634"/>
      <point x="135.988" y="668"/>
      <point x="141.302" y="693" type="qcurve" smooth="yes"/>
      <point x="146.616" y="718"/>
      <point x="188.843" y="752"/>
      <point x="213.843" y="752" type="qcurve" smooth="yes"/>
      <point x="238.843" y="752"/>
      <point x="265.616" y="718"/>
    </contour>
    <contour>
      <point x="419.302" y="693" type="qcurve" smooth="yes"/>
      <point x="413.988" y="668"/>
      <point x="371.761" y="634"/>
      <point x="346.761" y="634" type="qcurve" smooth="yes"/>
      <point x="321.761" y="634"/>
      <point x="293.988" y="668"/>
      <point x="299.302" y="693" type="qcurve" smooth="yes"/>
      <point x="304.616" y="718"/>
      <point x="346.843" y="752"/>
      <point x="371.843" y="752" type="qcurve" smooth="yes"/>
      <point x="396.843" y="752"/>
      <point x="424.616" y="718"/>
    </contour>
    <contour>
      <point x="382.533" y="807" type="qcurve" smooth="yes"/>
      <point x="307.804" y="733" type="line"/>
      <point x="263.804" y="733" type="line"/>
      <point x="319.461" y="849" type="line"/>
      <point x="330.924" y="870"/>
      <point x="371.963" y="889"/>
      <point x="391.05" y="880" type="qcurve"/>
      <point x="408.712" y="869"/>
      <point x="400.147" y="824"/>
    </contour>
    <contour>
      <point x="292.417" y="750" type="move" name="tonos"/>
    </contour>
    <contour>
      <point x="260.534" y="600" type="move" name="_tonos"/>
    </contour>
    <contour>
      <point x="292.417" y="750" type="move" name="tonos.1"/>
    </contour>
    <contour>
      <point x="260.534" y="600" type="move" name="_tonos.1"/>
    </contour>
    <contour>
      <point x="292.417" y="750" type="move" name="tonos.2"/>
    </contour>
    <contour>
      <point x="260.534" y="600" type="move" name="_tonos.2"/>
    </contour>
  </outline>
</glyph>
